<svg width="56" height="56" viewBox="0 0 56 56" fill="none" xmlns="http://www.w3.org/2000/svg">
<path d="M25.811 4.88476C26.8183 3.28321 29.1813 3.2832 30.1887 4.88476L32.6033 8.72373C33.2655 9.77666 34.6015 10.2047 35.7649 9.73677L40.0066 8.03054C41.7762 7.31874 43.6879 8.68841 43.5482 10.568L43.2134 15.0733C43.1216 16.309 43.9473 17.4298 45.1674 17.7255L49.616 18.8037C51.4719 19.2536 52.2021 21.4698 50.9688 22.9094L48.0125 26.3603C47.2017 27.3067 47.2017 28.692 48.0125 29.6385L50.9688 33.0894C52.2021 34.529 51.4719 36.7452 49.616 37.195L45.1674 38.2733C43.9473 38.569 43.1216 39.6897 43.2134 40.9254L43.5482 45.4308C43.6879 47.3104 41.7762 48.68 40.0066 47.9682L35.7649 46.262C34.6015 45.794 33.2655 46.2221 32.6033 47.275L30.1887 51.114C29.1813 52.7156 26.8183 52.7156 25.811 51.114L23.3964 47.275C22.7342 46.2221 21.3981 45.794 20.2348 46.262L15.9931 47.9682C14.2235 48.68 12.3118 47.3104 12.4515 45.4308L12.7863 40.9254C12.8781 39.6897 12.0524 38.569 10.8322 38.2733L6.38365 37.195C4.52777 36.7452 3.79756 34.529 5.03087 33.0894L7.98717 29.6385C8.798 28.692 8.798 27.3067 7.98717 26.3603L5.03087 22.9094C3.79756 21.4698 4.52777 19.2536 6.38364 18.8037L10.8322 17.7255C12.0524 17.4298 12.8781 16.309 12.7863 15.0733L12.4515 10.568C12.3118 8.68841 14.2235 7.31874 15.9931 8.03054L20.2348 9.73677C21.3981 10.2047 22.7342 9.77666 23.3964 8.72373L25.811 4.88476Z" fill="#FFDF96"/>
<path d="M16.5573 32L14.4453 24.74H16.0623L17.4923 30.735L18.9443 24.74H20.3963L21.8703 30.735L23.2893 24.74H24.8403L22.7283 32H21.0233L20.0113 28.04L19.6703 26.324H19.6483L19.3073 28.04L18.3063 32H16.5573ZM29.051 28.491C29.051 28.1757 28.9594 27.93 28.776 27.754C28.6 27.578 28.3654 27.49 28.072 27.49C27.8007 27.49 27.5624 27.5597 27.357 27.699C27.1517 27.8383 27.0014 28.0693 26.906 28.392L25.619 27.996C25.7437 27.512 26.015 27.1233 26.433 26.83C26.8584 26.5367 27.4267 26.39 28.138 26.39C28.622 26.39 29.0437 26.467 29.403 26.621C29.7624 26.7677 30.041 26.9913 30.239 27.292C30.4444 27.5927 30.547 27.9703 30.547 28.425V30.658C30.547 30.9367 30.679 31.076 30.943 31.076C31.0677 31.076 31.185 31.0577 31.295 31.021L31.207 31.956C31.0164 32.0513 30.778 32.099 30.492 32.099C30.2354 32.099 30.0044 32.055 29.799 31.967C29.5937 31.879 29.4324 31.747 29.315 31.571C29.1977 31.3877 29.139 31.1603 29.139 30.889V30.845L29.403 30.801C29.359 31.0797 29.238 31.318 29.04 31.516C28.842 31.7067 28.6 31.8533 28.314 31.956C28.0354 32.0587 27.7457 32.11 27.445 32.11C27.071 32.11 26.7484 32.055 26.477 31.945C26.2057 31.8277 25.9967 31.659 25.85 31.439C25.7034 31.219 25.63 30.9477 25.63 30.625C25.63 30.2143 25.762 29.8807 26.026 29.624C26.29 29.36 26.6677 29.1803 27.159 29.085L29.227 28.667L29.216 29.602L27.896 29.866C27.6467 29.9173 27.456 29.987 27.324 30.075C27.1994 30.1557 27.137 30.2913 27.137 30.482C27.137 30.6653 27.203 30.8047 27.335 30.9C27.4744 30.9953 27.6394 31.043 27.83 31.043C27.984 31.043 28.1344 31.0247 28.281 30.988C28.4277 30.9513 28.5597 30.8927 28.677 30.812C28.7944 30.7313 28.886 30.6213 28.952 30.482C29.018 30.3427 29.051 30.174 29.051 29.976V28.491ZM32.7324 32V24.091H34.2394V27.435C34.4154 27.083 34.6574 26.8227 34.9654 26.654C35.2734 26.478 35.6218 26.39 36.0104 26.39C36.3918 26.39 36.7291 26.4633 37.0224 26.61C37.3231 26.7567 37.5578 26.9803 37.7264 27.281C37.9024 27.5743 37.9904 27.9447 37.9904 28.392V32H36.4834V28.832C36.4834 28.3553 36.3918 28.029 36.2084 27.853C36.0251 27.6697 35.7904 27.578 35.5044 27.578C35.2918 27.578 35.0864 27.6293 34.8884 27.732C34.6978 27.8273 34.5401 27.9887 34.4154 28.216C34.2981 28.436 34.2394 28.7293 34.2394 29.096V32H32.7324ZM41.528 24.091V30.306C41.528 30.5627 41.572 30.7423 41.66 30.845C41.748 30.9477 41.8946 30.999 42.1 30.999C42.2246 30.999 42.3273 30.9917 42.408 30.977C42.4886 30.955 42.5913 30.9257 42.716 30.889L42.584 31.879C42.4593 31.9523 42.3016 32.0073 42.111 32.044C41.9276 32.088 41.7443 32.11 41.561 32.11C41.0256 32.11 40.6333 31.9817 40.384 31.725C40.142 31.461 40.021 31.043 40.021 30.471V24.091H41.528Z" fill="#5A4400"/>
</svg>
