<svg width="99" height="67" viewBox="0 0 99 67" fill="none" xmlns="http://www.w3.org/2000/svg">
<path d="M71.197 0.67124L96.7062 16.9101C98.7771 18.2284 99.3345 21.0106 97.9269 23.0208C91.0171 32.8976 82.5142 41.3511 72.6015 48.1879C61.8463 55.6051 49.9027 60.8078 37.1021 63.6502C24.3016 66.4927 11.2785 66.8339 -1.60518 64.6659C-13.4799 62.6672 -24.7624 58.6083 -35.2021 52.5829C-37.3288 51.3551 -38.0008 48.6007 -36.6825 46.5298L-20.4445 21.0219C-19.2166 19.0931 -16.7044 18.4725 -14.6993 19.5744C-1.45527 26.8596 13.797 29.056 28.6862 25.7498C43.5754 22.4436 56.4632 13.9972 65.3805 1.79223C66.7308 -0.054778 69.2696 -0.555739 71.1984 0.672121L71.197 0.67124Z" fill="#EBDDFF"/>
</svg>
