<svg width="181" height="67" viewBox="0 0 181 67" fill="none" xmlns="http://www.w3.org/2000/svg">
<path d="M96.6211 66.3776C97.3004 66.3776 97.8719 66.1459 98.3357 65.6826C98.7994 65.2192 99.0312 64.6481 99.0312 63.9694V54.6169C99.0312 53.9361 98.7994 53.367 98.3357 52.9037C97.8719 52.4403 97.3004 52.2086 96.6211 52.2086H94.5994C93.3649 52.2086 92.3906 51.9769 91.6808 51.5136C90.971 51.0502 90.4768 50.3694 90.1981 49.4773C89.9195 48.5831 89.7812 47.6116 89.7812 46.5609V3.04398C89.7812 2.3652 89.5493 1.79414 89.0856 1.33078C88.6219 0.867421 88.0524 0.635742 87.371 0.635742H72.9143C72.2349 0.635742 71.6634 0.867421 71.1997 1.33078C70.736 1.79414 70.5041 2.3652 70.5041 3.04398V47.0263C70.5041 51.286 70.5021 52.2107 70.5021 52.2107C70.5021 52.2107 77.6084 62.752 80.883 64.2031C84.1575 65.6521 81.6558 66.3796 85.9778 66.3796H96.6191L96.6211 66.3776Z" fill="white"/>
<path d="M2.91014 66.3781C2.23083 66.3781 1.65931 66.1464 1.19559 65.6831C0.731862 65.2197 0.5 64.6486 0.5 63.9699V54.6174C0.5 53.9366 0.731862 53.3675 1.19559 52.9042C1.65931 52.4408 2.23083 52.2091 2.91014 52.2091H7.35823C8.59279 52.2091 9.56702 51.9775 10.2768 51.5141C10.9867 51.0507 11.4809 50.3699 11.7595 49.4778C12.0382 48.5836 12.1765 47.6121 12.1765 46.5615V20.961C12.1765 20.2822 12.4083 19.7111 12.8721 19.2478C13.3358 18.7844 13.9053 18.5527 14.5866 18.5527H29.0434C29.7227 18.5527 30.2942 18.7844 30.758 19.2478C31.2217 19.7111 31.4535 20.2822 31.4535 20.961V47.0228C31.4535 51.2824 30.5403 54.847 28.72 57.7186C26.8977 60.5882 24.3492 62.7485 21.0747 64.1995C17.8001 65.6485 14.0009 66.3761 9.67685 66.3761H2.91014V66.3781Z" fill="white"/>
<path d="M60.6718 66.3776C56.3478 66.3776 52.5485 65.6521 49.274 64.201C45.9995 62.75 43.451 60.5897 41.6287 57.7201C39.8063 54.8506 38.8951 51.2839 38.8951 47.0243V3.04398C38.8951 2.3652 39.127 1.79414 39.5907 1.33078C40.0545 0.867421 40.626 0.635742 41.3053 0.635742H55.7621C56.4414 0.635742 57.0129 0.867421 57.4766 1.33078C57.9404 1.79414 58.1722 2.3652 58.1722 3.04398V46.563C58.1722 47.6137 58.3105 48.5851 58.5892 49.4793C58.8678 50.3735 59.362 51.0543 60.0718 51.5156C60.7837 51.979 61.7559 52.2107 62.9905 52.2107H88.3122C88.9915 52.2107 89.563 52.4423 90.0268 52.9057C90.4905 53.369 90.7224 53.9381 90.7224 54.6189V63.9714C90.7224 64.6502 90.4905 65.2212 90.0268 65.6846C89.563 66.1479 88.9915 66.3796 88.3122 66.3796H60.6739L60.6718 66.3776Z" fill="white"/>
<path d="M30.7561 1.33078C30.2924 0.867421 29.7229 0.635742 29.0415 0.635742H14.5848C13.9054 0.635742 13.3339 0.867421 12.8702 1.33078C12.4065 1.79414 12.1746 2.3652 12.1746 3.04398V12.431C12.1746 13.1098 12.4065 13.6809 12.8702 14.1442C13.3339 14.6076 13.9034 14.8393 14.5848 14.8393H29.0415C29.7209 14.8393 30.2924 14.6076 30.7561 14.1442C31.2198 13.6809 31.4517 13.1098 31.4517 12.431V3.04398C31.4517 2.3652 31.2198 1.79414 30.7561 1.33078Z" fill="white"/>
<path d="M161.918 65.6843C162.382 66.1476 162.952 66.3793 163.633 66.3793H178.09C178.769 66.3793 179.341 66.1476 179.804 65.6843C180.268 65.2209 180.5 64.6498 180.5 63.9711V54.584C180.5 53.9052 180.268 53.3342 179.804 52.8708C179.341 52.4075 178.771 52.1758 178.09 52.1758H163.633C162.954 52.1758 162.382 52.4075 161.918 52.8708C161.455 53.3342 161.223 53.9052 161.223 54.584V63.9711C161.223 64.6498 161.455 65.2209 161.918 65.6843Z" fill="white"/>
<path d="M131.295 0C131.974 0 132.545 0.231679 133.009 0.695036C133.473 1.15839 133.705 1.72946 133.705 2.40824V11.7607C133.705 12.4415 133.473 13.0106 133.009 13.4739C132.545 13.9373 131.974 14.169 131.295 14.169H126.846C125.612 14.169 124.638 14.4007 123.928 14.864C123.218 15.3274 122.724 16.0082 122.445 16.9003C122.166 17.7945 122.028 18.766 122.028 19.8167V63.9738C122.028 64.6526 121.796 65.2236 121.333 65.687C120.869 66.1503 120.299 66.382 119.618 66.382H105.161C104.482 66.382 103.91 66.1503 103.447 65.687C102.983 65.2236 102.751 64.6526 102.751 63.9738V19.3533C102.751 15.0937 103.662 11.5291 105.485 8.65746C107.307 5.7879 109.855 3.6276 113.13 2.17656C116.407 0.72552 120.206 0 124.528 0H131.292H131.295Z" fill="white"/>
<path d="M134.413 19.4482V26.5856C134.413 27.6363 134.274 28.6077 133.996 29.5019C133.717 30.3961 133.223 31.0769 132.513 31.5382C131.801 32.0016 130.829 32.2332 129.594 32.2332H120.702C120.023 32.2332 120.407 32.4649 119.944 32.9283C119.48 33.3916 119.248 33.9607 119.248 34.6415V43.994C119.248 44.6728 119.48 45.2438 119.944 45.7072C120.407 46.1705 120.979 46.4022 121.658 46.4022H131.911C136.235 46.4022 140.034 45.6767 143.309 44.2257C146.583 42.7746 149.132 40.6143 150.954 37.7448C152.777 34.8752 153.688 31.3086 153.688 27.0489V19.4503H134.413V19.4482Z" fill="white"/>
<path d="M134.412 26.9637V19.8263C134.412 18.7757 134.274 17.8042 133.995 16.91C133.717 16.0158 133.222 15.335 132.512 14.8737C131.801 14.4103 130.828 14.1787 129.594 14.1787H125.146C124.466 14.1787 123.895 13.947 123.431 13.4836C122.968 13.0203 122.736 12.4512 122.736 11.7704V2.41996C122.736 1.74118 122.968 1.17011 123.431 0.706755C123.895 0.243397 124.466 0.0117188 125.146 0.0117188H131.91C136.234 0.0117188 140.034 0.737239 143.308 2.18828C146.583 3.63932 149.131 5.79962 150.954 8.66918C152.776 11.5387 153.687 15.1054 153.687 19.365V26.9637H134.412Z" fill="white"/>
<path d="M161.918 47.764C162.382 48.2274 162.954 48.4591 163.633 48.4591H178.09C178.769 48.4591 179.341 48.2274 179.804 47.764C180.268 47.3007 180.5 46.7296 180.5 46.0508V3.04398C180.5 2.3652 180.268 1.79414 179.804 1.33078C179.341 0.867421 178.769 0.635742 178.09 0.635742H163.633C162.954 0.635742 162.382 0.867421 161.918 1.33078C161.455 1.79414 161.223 2.3652 161.223 3.04398V46.0508C161.223 46.7296 161.455 47.3007 161.918 47.764Z" fill="white"/>
</svg>
