<?xml version="1.0" encoding="UTF-8"?>
<svg id="Ebene_2" data-name="Ebene 2" xmlns="http://www.w3.org/2000/svg" xmlns:xlink="http://www.w3.org/1999/xlink" viewBox="0 0 417.03 284.15">
  <defs>
    <clipPath id="clippath">
      <rect style="fill: none;" x="25.71" y="29.96" width="370.99" height="240"/>
    </clipPath>
  </defs>
  <g id="Avatare">
    <rect style="fill: #150042;" x="23.71" y="29.96" width="375" height="240"/>
    <g style="clip-path: url(#clippath);">
      <g>
        <path style="fill: #371386;" d="M363.66,98.47l-2.11-4.13c-.33-.65-1.12-.92-1.79-.61l-4.2,1.98c-1.24.58-2.46-.82-1.72-1.97l2.52-3.9c.4-.61.24-1.43-.36-1.85l-3.81-2.65c-1.12-.78-.52-2.54.84-2.47l4.64.24c.73.04,1.36-.51,1.42-1.24l.39-4.63c.11-1.36,1.94-1.72,2.56-.5l2.11,4.13c.33.65,1.12.92,1.79.61l4.2-1.98c1.24-.58,2.46.82,1.72,1.97l-2.52,3.9c-.4.61-.24,1.43.36,1.85l3.81,2.65c1.12.78.52,2.54-.84,2.47l-4.64-.24c-.73-.04-1.36.51-1.42,1.24l-.39,4.63c-.11,1.36-1.94,1.72-2.56.5Z"/>
        <path style="fill: #371386;" d="M41.17,66.98l-2.11-4.13c-.33-.65-1.12-.92-1.79-.61l-4.2,1.98c-1.24.58-2.46-.82-1.72-1.97l2.52-3.9c.4-.61.24-1.43-.36-1.85l-3.81-2.65c-1.12-.78-.52-2.54.84-2.47l4.64.24c.73.04,1.36-.51,1.42-1.24l.39-4.63c.11-1.36,1.94-1.72,2.56-.5l2.11,4.13c.33.65,1.12.92,1.79.61l4.2-1.98c1.24-.58,2.46.82,1.72,1.97l-2.52,3.9c-.4.61-.24,1.43.36,1.85l3.81,2.65c1.12.78.52,2.54-.84,2.47l-4.64-.24c-.73-.04-1.36.51-1.42,1.24l-.39,4.63c-.11,1.36-1.94,1.72-2.56.5Z"/>
        <circle style="fill: #371386;" cx="362.73" cy="56.21" r="11.19"/>
        <path style="fill: #371386;" d="M63.4,54.58l1.66,28.66c.07,1.15.8,2.16,1.87,2.58l26.74,10.43c2,.78,4.15-.77,4.02-2.92l-1.66-28.66c-.07-1.15-.8-2.16-1.87-2.58l-26.74-10.43c-2-.78-4.15.77-4.02,2.92Z"/>
        <path style="fill: #371386;" d="M315.77,75.79l26.74-10.43c1.08-.42,1.81-1.43,1.87-2.58l1.66-28.66c.12-2.15-2.02-3.7-4.02-2.92l-26.74,10.43c-1.08.42-1.81,1.43-1.87,2.58l-1.66,28.66c-.12,2.15,2.02,3.7,4.02,2.92Z"/>
        <path style="fill: #371386;" d="M344.77,90.49c.02-6.69-5.52-12.16-12.21-12.16h-10.5c-.84,0-1.53.68-1.53,1.53v21.18c0,.84.68,1.53,1.53,1.53h10.59c6.68,0,12.09-5.4,12.12-12.07Z"/>
        <path style="fill: #371386;" d="M158.9,27.07c.02-6.69-5.52-12.16-12.21-12.16h-10.5c-.84,0-1.53.68-1.53,1.53v21.18c0,.84.68,1.53,1.53,1.53h10.59c6.68,0,12.09-5.4,12.12-12.07Z"/>
        <path style="fill: #371386;" d="M43.52,88.95l-9.43-12.98c-.65-.89-1.79-1.26-2.84-.92l-15.26,4.96c-1.05.34-1.76,1.32-1.76,2.42v16.05c0,1.1.71,2.08,1.76,2.42l15.26,4.96c1.05.34,2.19-.03,2.84-.92l9.43-12.98c.65-.89.65-2.1,0-2.99Z"/>
        <path style="fill: #371386;" d="M99.65,109.17l-18.22-10.52c-1.49-.86-3.35.22-3.35,1.94v21.04c0,1.72,1.86,2.8,3.35,1.94l18.22-10.52c1.49-.86,1.49-3.01,0-3.87Z"/>
        <path style="fill: #371386;" d="M398.74,22.5c0-10.99-8.91-19.9-19.9-19.9s-19.9,8.91-19.9,19.9,8.91,19.9,19.9,19.9,19.9-8.91,19.9-19.9ZM370.35,22.5c0-4.69,3.8-8.49,8.49-8.49s8.49,3.8,8.49,8.49-3.8,8.49-8.49,8.49-8.49-3.8-8.49-8.49Z"/>
        <path style="fill: #371386;" d="M320.77,119.6c0-10.99-8.91-19.9-19.9-19.9s-19.9,8.91-19.9,19.9,8.91,19.9,19.9,19.9,19.9-8.91,19.9-19.9ZM292.38,119.6c0-4.69,3.8-8.49,8.49-8.49s8.49,3.8,8.49,8.49-3.8,8.49-8.49,8.49-8.49-3.8-8.49-8.49Z"/>
        <path style="fill: #371386;" d="M74.8,22.5c0-10.99-8.91-19.9-19.9-19.9s-19.9,8.91-19.9,19.9,8.91,19.9,19.9,19.9,19.9-8.91,19.9-19.9ZM46.41,22.5c0-4.69,3.8-8.49,8.49-8.49s8.49,3.8,8.49,8.49-3.8,8.49-8.49,8.49-8.49-3.8-8.49-8.49Z"/>
        <path style="fill: #371386;" d="M404.19,75.11h10.36c.84,0,1.51.7,1.48,1.54-.18,4.13-1.08,8.13-2.69,11.93-1.74,4.12-4.24,7.82-7.42,11-3.18,3.18-6.88,5.67-11,7.42-3.8,1.61-7.81,2.51-11.93,2.69-.84.04-1.54-.64-1.54-1.48v-10.36c0-.78.61-1.43,1.39-1.48,5.17-.33,9.98-2.5,13.68-6.2s5.87-8.51,6.2-13.68c.05-.78.69-1.39,1.48-1.39Z"/>
        <path style="fill: #371386;" d="M78.16,130.74l-.86,10.32c-.07.84-.83,1.45-1.66,1.34-4.1-.52-8.01-1.76-11.67-3.67-3.96-2.08-7.44-4.88-10.34-8.31-2.9-3.43-5.08-7.33-6.47-11.58-1.29-3.92-1.85-7.99-1.69-12.12.03-.84.76-1.48,1.6-1.41l10.32.86c.78.07,1.37.73,1.35,1.51-.1,5.18,1.66,10.15,5.04,14.14s7.99,6.55,13.11,7.32c.78.12,1.33.81,1.27,1.59Z"/>
        <path style="fill: #371386;" d="M395.57,71.72h.07c.35,3.32,3.16,5.91,6.57,5.91s6.22-2.59,6.57-5.91h.04v-16.11c0-3.65-2.96-6.61-6.61-6.61s-6.61,2.96-6.61,6.61c0-3.65-2.96-6.61-6.61-6.61s-6.61,2.96-6.61,6.61v16.11h.04c.35,3.32,3.16,5.91,6.57,5.91s6.22-2.59,6.57-5.91Z"/>
        <path style="fill: #371386;" d="M285.33,68.04l-.03.03-.03.03c-2.62-2.07-6.43-1.88-8.82.56s-2.5,6.26-.38,8.83l-.03.03,11.51,11.27c2.61,2.55,6.79,2.51,9.34-.1s2.51-6.79-.1-9.34c2.61,2.55,6.79,2.51,9.34-.1,2.55-2.61,2.51-6.79-.1-9.34l-11.51-11.27-.03.03c-2.62-2.07-6.43-1.88-8.82.56s-2.5,6.26-.38,8.83Z"/>
        <path style="fill: #371386;" d="M210.18,45.79l2.11,4.13c.33.65,1.12.92,1.79.61l4.2-1.98c1.24-.58,2.46.82,1.72,1.97l-2.52,3.9c-.4.61-.24,1.43.36,1.85l3.81,2.65c1.12.78.52,2.54-.84,2.47l-4.64-.24c-.73-.04-1.36.51-1.42,1.24l-.39,4.63c-.11,1.36-1.94,1.72-2.56.5l-2.11-4.13c-.33-.65-1.12-.92-1.79-.61l-4.2,1.98c-1.24.58-2.46-.82-1.72-1.97l2.52-3.9c.4-.61.24-1.43-.36-1.85l-3.81-2.65c-1.12-.78-.52-2.54.84-2.47l4.64.24c.73.04,1.36-.51,1.42-1.24l.39-4.63c.11-1.36,1.94-1.72,2.56-.5Z"/>
        <path style="fill: #371386;" d="M216.14.21l-26.74,10.43c-1.08.42-1.81,1.43-1.87,2.58l-1.66,28.66c-.12,2.15,2.02,3.7,4.02,2.92l26.74-10.43c1.08-.42,1.81-1.43,1.87-2.58l1.66-28.66c.12-2.15-2.02-3.7-4.02-2.92Z"/>
        <path style="fill: #371386;" d="M97.29,126.71l9.43,12.98c.65.89,1.79,1.26,2.84.92l15.26-4.96c1.05-.34,1.76-1.32,1.76-2.42v-16.05c0-1.1-.71-2.08-1.76-2.42l-15.26-4.96c-1.05-.34-2.19.03-2.84.92l-9.43,12.98c-.65.89-.65,2.1,0,2.99Z"/>
        <path style="fill: #371386;" d="M142.38,60.75c0,10.99,8.91,19.9,19.9,19.9s19.9-8.91,19.9-19.9-8.91-19.9-19.9-19.9-19.9,8.91-19.9,19.9ZM170.77,60.75c0,4.69-3.8,8.49-8.49,8.49s-8.49-3.8-8.49-8.49,3.8-8.49,8.49-8.49,8.49,3.8,8.49,8.49Z"/>
        <path style="fill: #371386;" d="M264.47,68.58v10.36c0,.84-.7,1.51-1.54,1.48-4.13-.18-8.13-1.08-11.93-2.69-4.12-1.74-7.82-4.24-11-7.42-3.18-3.18-5.67-6.88-7.42-11-1.61-3.8-2.51-7.81-2.69-11.93-.04-.84.64-1.54,1.48-1.54h10.36c.78,0,1.43.61,1.48,1.39.33,5.17,2.5,9.98,6.2,13.68s8.51,5.87,13.68,6.2c.78.05,1.39.69,1.39,1.48Z"/>
        <path style="fill: #371386;" d="M101.64,14.51l4.73,9.05c.13.26.48.3.67.08l6.74-7.67c.27-.31.78-.07.72.33l-1.49,10.11c-.04.29.22.52.5.46l9.97-2.25c.4-.09.67.4.38.69l-7.15,7.3c-.2.21-.13.55.13.66l9.38,4.04c.38.16.31.71-.09.78l-10.07,1.7c-.28.05-.43.37-.28.61l5.22,8.78c.21.35-.17.76-.54.58l-9.15-4.54c-.26-.13-.57.04-.59.33l-.94,10.17c-.04.41-.58.52-.77.15l-4.73-9.05c-.13-.26-.48-.3-.67-.08l-6.74,7.67c-.27.31-.78.07-.72-.33l1.49-10.11c.04-.29-.22-.52-.5-.46l-9.97,2.25c-.4.09-.67-.4-.38-.69l7.15-7.3c.2-.21.13-.55-.13-.66l-9.38-4.04c-.38-.16-.31-.71.09-.78l10.07-1.7c.28-.05.43-.37.28-.61l-5.22-8.78c-.21-.35.17-.76.54-.58l9.15,4.54c.26.13.57-.04.59-.33l.94-10.17c.04-.41.58-.52.77-.15Z"/>
        <path style="fill: #371386;" d="M352.9,105.53l4.73,9.05c.13.26.48.3.67.08l6.74-7.67c.27-.31.78-.07.72.33l-1.49,10.11c-.04.29.22.52.5.46l9.97-2.25c.4-.09.67.4.38.69l-7.15,7.3c-.2.21-.13.55.13.66l9.38,4.04c.38.16.31.71-.09.78l-10.07,1.7c-.28.05-.43.37-.28.61l5.22,8.78c.21.35-.17.76-.54.58l-9.15-4.54c-.26-.13-.57.04-.59.33l-.94,10.17c-.04.41-.58.52-.77.15l-4.73-9.05c-.13-.26-.48-.3-.67-.08l-6.74,7.67c-.27.31-.78.07-.72-.33l1.49-10.11c.04-.29-.22-.52-.5-.46l-9.97,2.25c-.4.09-.67-.4-.38-.69l7.15-7.3c.2-.21.13-.55-.13-.66l-9.38-4.04c-.38-.16-.31-.71.09-.78l10.07-1.7c.28-.05.43-.37.28-.61l-5.22-8.78c-.21-.35.17-.76.54-.58l9.15,4.54c.26.13.57-.04.59-.33l.94-10.17c.04-.41.58-.52.77-.15Z"/>
        <path style="fill: #371386;" d="M122.59,64.19l3.28,2.87c.55.48,1.3.63,1.99.4l4.14-1.38c1.27-.42,2.6.47,2.69,1.8l.29,4.35c.05.72.48,1.37,1.13,1.69l3.9,1.95c1.2.6,1.51,2.17.63,3.18l-2.87,3.28c-.48.55-.63,1.3-.4,1.99l1.38,4.14c.42,1.27-.47,2.6-1.8,2.69l-4.35.29c-.72.05-1.37.48-1.69,1.13l-1.95,3.9c-.6,1.2-2.17,1.51-3.18.63l-3.28-2.87c-.55-.48-1.3-.63-1.99-.4l-4.14,1.38c-1.27.42-2.6-.47-2.69-1.8l-.29-4.35c-.05-.72-.48-1.37-1.13-1.69l-3.9-1.95c-1.2-.6-1.51-2.17-.63-3.18l2.87-3.28c.48-.55.63-1.3.4-1.99l-1.38-4.14c-.42-1.27.47-2.6,1.8-2.69l4.35-.29c.72-.05,1.37-.48,1.69-1.13l1.95-3.9c.6-1.2,2.17-1.51,3.18-.63Z"/>
        <path style="fill: #371386;" d="M262.88,24.39l3.28,2.87c.55.48,1.3.63,1.99.4l4.14-1.38c1.27-.42,2.6.47,2.69,1.8l.29,4.35c.05.72.48,1.37,1.13,1.69l3.9,1.95c1.2.6,1.51,2.17.63,3.18l-2.87,3.28c-.48.55-.63,1.3-.4,1.99l1.38,4.14c.42,1.27-.47,2.6-1.8,2.69l-4.35.29c-.72.05-1.37.48-1.69,1.13l-1.95,3.9c-.6,1.2-2.17,1.51-3.18.63l-3.28-2.87c-.55-.48-1.3-.63-1.99-.4l-4.14,1.38c-1.27.42-2.6-.47-2.69-1.8l-.29-4.35c-.05-.72-.48-1.37-1.13-1.69l-3.9-1.95c-1.2-.6-1.51-2.17-.63-3.18l2.87-3.28c.48-.55.63-1.3.4-1.99l-1.38-4.14c-.42-1.27.47-2.6,1.8-2.69l4.35-.29c.72-.05,1.37-.48,1.69-1.13l1.95-3.9c.6-1.2,2.17-1.51,3.18-.63Z"/>
        <path style="fill: #371386;" d="M123.37,227.44l2.11,4.13c.33.65,1.12.92,1.79.61l4.2-1.98c1.24-.58,2.46.82,1.72,1.97l-2.52,3.9c-.4.61-.24,1.43.36,1.85l3.81,2.65c1.12.78.52,2.54-.84,2.47l-4.64-.24c-.73-.04-1.36.51-1.42,1.24l-.39,4.63c-.11,1.36-1.94,1.72-2.56.5l-2.11-4.13c-.33-.65-1.12-.92-1.79-.61l-4.2,1.98c-1.24.58-2.46-.82-1.72-1.97l2.52-3.9c.4-.61.24-1.43-.36-1.85l-3.81-2.65c-1.12-.78-.52-2.54.84-2.47l4.64.24c.73.04,1.36-.51,1.42-1.24l.39-4.63c.11-1.36,1.94-1.72,2.56-.5Z"/>
        <path style="fill: #371386;" d="M60.99,144.63l2.11,4.13c.33.65,1.12.92,1.79.61l4.2-1.98c1.24-.58,2.46.82,1.72,1.97l-2.52,3.9c-.4.61-.24,1.43.36,1.85l3.81,2.65c1.12.78.52,2.54-.84,2.47l-4.64-.24c-.73-.04-1.36.51-1.42,1.24l-.39,4.63c-.11,1.36-1.94,1.72-2.56.5l-2.11-4.13c-.33-.65-1.12-.92-1.79-.61l-4.2,1.98c-1.24.58-2.46-.82-1.72-1.97l2.52-3.9c.4-.61.24-1.43-.36-1.85l-3.81-2.65c-1.12-.78-.52-2.54.84-2.47l4.64.24c.73.04,1.36-.51,1.42-1.24l.39-4.63c.11-1.36,1.94-1.72,2.56-.5Z"/>
        <circle style="fill: #371386;" cx="78.22" cy="216.78" r="11.19"/>
        <circle style="fill: #371386;" cx="146.78" cy="216.78" r="11.19"/>
        <path style="fill: #371386;" d="M387.49,233.45l-1.66-28.66c-.07-1.15-.8-2.16-1.87-2.58l-26.74-10.43c-2-.78-4.15.77-4.02,2.92l1.66,28.66c.07,1.15.8,2.16,1.87,2.58l26.74,10.43c2,.78,4.15-.77,4.02-2.92Z"/>
        <path style="fill: #371386;" d="M130.67,180.32l-27.13,9.38c-1.09.38-1.86,1.36-1.97,2.51l-2.77,28.57c-.21,2.14,1.87,3.78,3.9,3.08l27.13-9.38c1.09-.38,1.86-1.36,1.97-2.51l2.77-28.57c.21-2.14-1.87-3.78-3.9-3.08Z"/>
        <path style="fill: #371386;" d="M49.69,184.41c-.02,6.69,5.52,12.16,12.21,12.16h10.5c.84,0,1.53-.68,1.53-1.53v-21.18c0-.84-.68-1.53-1.53-1.53h-10.59c-6.68,0-12.09,5.4-12.12,12.07Z"/>
        <path style="fill: #371386;" d="M368.61,176.78l18.22,10.52c1.49.86,3.35-.22,3.35-1.94v-21.04c0-1.72-1.86-2.8-3.35-1.94l-18.22,10.52c-1.49.86-1.49,3.01,0,3.87Z"/>
        <path style="fill: #371386;" d="M287.6,32.93l18.22,10.52c1.49.86,3.35-.22,3.35-1.94v-21.04c0-1.72-1.86-2.8-3.35-1.94l-18.22,10.52c-1.49.86-1.49,3.01,0,3.87Z"/>
        <path style="fill: #371386;" d="M43.49,255.76c0,10.99,8.91,19.9,19.9,19.9s19.9-8.91,19.9-19.9-8.91-19.9-19.9-19.9-19.9,8.91-19.9,19.9ZM71.89,255.76c0,4.69-3.8,8.49-8.49,8.49s-8.49-3.8-8.49-8.49,3.8-8.49,8.49-8.49,8.49,3.8,8.49,8.49Z"/>
        <path style="fill: #371386;" d="M83.29,161.97c0,10.99,8.91,19.9,19.9,19.9s19.9-8.91,19.9-19.9-8.91-19.9-19.9-19.9-19.9,8.91-19.9,19.9ZM111.69,161.97c0,4.69-3.8,8.49-8.49,8.49s-8.49-3.8-8.49-8.49,3.8-8.49,8.49-8.49,8.49,3.8,8.49,8.49Z"/>
        <path style="fill: #371386;" d="M374.84,264.25c0,10.99,8.91,19.9,19.9,19.9s19.9-8.91,19.9-19.9-8.91-19.9-19.9-19.9-19.9,8.91-19.9,19.9ZM403.23,264.25c0,4.69-3.8,8.49-8.49,8.49s-8.49-3.8-8.49-8.49,3.8-8.49,8.49-8.49,8.49,3.8,8.49,8.49Z"/>
        <path style="fill: #371386;" d="M20.22,209.42h-10.36c-.84,0-1.51-.7-1.48-1.54.18-4.13,1.08-8.13,2.69-11.93,1.74-4.12,4.24-7.82,7.42-11,3.18-3.18,6.88-5.67,11-7.42,3.8-1.61,7.81-2.51,11.93-2.69.84-.04,1.54.64,1.54,1.48v10.36c0,.78-.61,1.43-1.39,1.48-5.17.33-9.98,2.5-13.68,6.2-3.69,3.69-5.87,8.51-6.2,13.68-.05.78-.69,1.39-1.48,1.39Z"/>
        <path style="fill: #371386;" d="M385.73,145.47l1.51-10.25c.12-.83.91-1.4,1.74-1.24,4.06.78,7.89,2.26,11.41,4.4,3.82,2.33,7.12,5.34,9.8,8.94,2.68,3.61,4.61,7.63,5.73,11.97,1.03,3.99,1.34,8.09.92,12.2-.09.84-.85,1.43-1.69,1.31l-10.25-1.51c-.78-.11-1.32-.81-1.26-1.59.43-5.16-1.02-10.24-4.13-14.43-3.12-4.2-7.56-7.05-12.62-8.13-.77-.16-1.28-.89-1.16-1.66Z"/>
        <path style="fill: #371386;" d="M303.26,145.39l10.11-2.28c.82-.18,1.63.35,1.78,1.18.73,4.06.73,8.17,0,12.23-.79,4.4-2.41,8.56-4.82,12.36-2.4,3.8-5.46,7.04-9.1,9.65-3.35,2.4-7.06,4.16-11.05,5.25-.81.22-1.64-.28-1.83-1.1l-2.28-10.11c-.17-.76.28-1.52,1.04-1.75,4.97-1.46,9.19-4.64,11.98-9.05s3.85-9.59,3.04-14.7c-.12-.77.37-1.51,1.13-1.68Z"/>
        <path style="fill: #371386;" d="M41.72,204.68h-.07c-.35-3.32-3.16-5.91-6.57-5.91s-6.22,2.59-6.57,5.91h-.04v16.11c0,3.65,2.96,6.61,6.61,6.61s6.61-2.96,6.61-6.61c0,3.65,2.96,6.61,6.61,6.61s6.61-2.96,6.61-6.61v-16.11h-.04c-.35-3.32-3.16-5.91-6.57-5.91s-6.22,2.59-6.57,5.91Z"/>
        <path style="fill: #371386;" d="M16.28,235.38l3.28,2.87c.55.48,1.3.63,1.99.4l4.14-1.38c1.27-.42,2.6.47,2.69,1.8l.29,4.35c.05.72.48,1.37,1.13,1.69l3.9,1.95c1.2.6,1.51,2.17.63,3.18l-2.87,3.28c-.48.55-.63,1.3-.4,1.99l1.38,4.14c.42,1.27-.47,2.6-1.8,2.69l-4.35.29c-.72.05-1.37.48-1.69,1.13l-1.95,3.9c-.6,1.2-2.17,1.51-3.18.63l-3.28-2.87c-.55-.48-1.3-.63-1.99-.4l-4.14,1.38c-1.27.42-2.6-.47-2.69-1.8l-.29-4.35c-.05-.72-.48-1.37-1.13-1.69l-3.9-1.95c-1.2-.6-1.51-2.17-.63-3.18l2.87-3.28c.48-.55.63-1.3.4-1.99l-1.38-4.14c-.42-1.27.47-2.6,1.8-2.69l4.35-.29c.72-.05,1.37-.48,1.69-1.13l1.95-3.9c.6-1.2,2.17-1.51,3.18-.63Z"/>
        <path style="fill: #371386;" d="M15.36,142.34l3.28,2.87c.55.48,1.3.63,1.99.4l4.14-1.38c1.27-.42,2.6.47,2.69,1.8l.29,4.35c.05.72.48,1.37,1.13,1.69l3.9,1.95c1.2.6,1.51,2.17.63,3.18l-2.87,3.28c-.48.55-.63,1.3-.4,1.99l1.38,4.14c.42,1.27-.47,2.6-1.8,2.69l-4.35.29c-.72.05-1.37.48-1.69,1.13l-1.95,3.9c-.6,1.2-2.17,1.51-3.18.63l-3.28-2.87c-.55-.48-1.3-.63-1.99-.4l-4.14,1.38c-1.27.42-2.6-.47-2.69-1.8l-.29-4.35c-.05-.72-.48-1.37-1.13-1.69l-3.9-1.95c-1.2-.6-1.51-2.17-.63-3.18l2.87-3.28c.48-.55.63-1.3.4-1.99l-1.38-4.14c-.42-1.27.47-2.6,1.8-2.69l4.35-.29c.72-.05,1.37-.48,1.69-1.13l1.95-3.9c.6-1.2,2.17-1.51,3.18-.63Z"/>
        <circle style="fill: #371386;" cx="271.64" cy="258.97" r="11.19"/>
        <circle style="fill: #371386;" cx="199.74" cy="247.78" r="11.19"/>
        <path style="fill: #371386;" d="M226.26,274.13l26.74-10.43c1.08-.42,1.81-1.43,1.87-2.58l1.66-28.66c.12-2.15-2.02-3.7-4.02-2.92l-26.74,10.43c-1.08.42-1.81,1.43-1.87,2.58l-1.66,28.66c-.12,2.15,2.02,3.7,4.02,2.92Z"/>
        <path style="fill: #371386;" d="M356.09,163.99l-9.43-12.98c-.65-.89-1.79-1.26-2.84-.92l-15.26,4.96c-1.05.34-1.76,1.32-1.76,2.42v16.05c0,1.1.71,2.08,1.76,2.42l15.26,4.96c1.05.34,2.19-.03,2.84-.92l9.43-12.98c.65-.89.65-2.1,0-2.99Z"/>
        <path style="fill: #371386;" d="M302.74,216.78c0-10.99-8.91-19.9-19.9-19.9s-19.9,8.91-19.9,19.9,8.91,19.9,19.9,19.9,19.9-8.91,19.9-19.9ZM274.35,216.78c0-4.69,3.8-8.49,8.49-8.49s8.49,3.8,8.49,8.49-3.8,8.49-8.49,8.49-8.49-3.8-8.49-8.49Z"/>
        <path style="fill: #371386;" d="M306.17,261.04h.07c.35,3.32,3.16,5.91,6.57,5.91s6.22-2.59,6.57-5.91h.04v-16.11c0-3.65-2.96-6.61-6.61-6.61s-6.61,2.96-6.61,6.61c0-3.65-2.96-6.61-6.61-6.61s-6.61,2.96-6.61,6.61v16.11h.04c.35,3.32,3.16,5.91,6.57,5.91s6.22-2.59,6.57-5.91Z"/>
        <path style="fill: #371386;" d="M96.91,262.35v.07c-3.32.35-5.91,3.16-5.91,6.57s2.59,6.22,5.91,6.57v.04h16.11c3.65,0,6.61-2.96,6.61-6.61s-2.96-6.61-6.61-6.61c3.65,0,6.61-2.96,6.61-6.61s-2.96-6.61-6.61-6.61h-16.11v.04c-3.32.35-5.91,3.16-5.91,6.57s2.59,6.22,5.91,6.57Z"/>
        <path style="fill: #371386;" d="M349.73,272.52l-4.73-9.05c-.13-.26-.48-.3-.67-.08l-6.74,7.67c-.27.31-.78.07-.72-.33l1.49-10.11c.04-.29-.22-.52-.5-.46l-9.97,2.25c-.4.09-.67-.4-.38-.69l7.15-7.3c.2-.21.13-.55-.13-.66l-9.38-4.04c-.38-.16-.31-.71.09-.78l10.07-1.7c.28-.05.43-.37.28-.61l-5.22-8.78c-.21-.35.17-.76.54-.58l9.15,4.54c.26.13.57-.04.59-.33l.94-10.17c.04-.41.58-.52.77-.15l4.73,9.05c.13.26.48.3.67.08l6.74-7.67c.27-.31.78-.07.72.33l-1.49,10.11c-.04.29.22.52.5.46l9.97-2.25c.4-.09.67.4.38.69l-7.15,7.3c-.2.21-.13.55.13.66l9.38,4.04c.38.16.31.71-.09.78l-10.07,1.7c-.28.05-.43.37-.28.61l5.22,8.78c.21.35-.17.76-.54.58l-9.15-4.54c-.26-.13-.57.04-.59.33l-.94,10.17c-.04.41-.58.52-.77.15Z"/>
        <path style="fill: #371386;" d="M327.82,218.54l-3.28-2.87c-.55-.48-1.3-.63-1.99-.4l-4.14,1.38c-1.27.42-2.6-.47-2.69-1.8l-.29-4.35c-.05-.72-.48-1.37-1.13-1.69l-3.9-1.95c-1.2-.6-1.51-2.17-.63-3.18l2.87-3.28c.48-.55.63-1.3.4-1.99l-1.38-4.14c-.42-1.27.47-2.6,1.8-2.69l4.35-.29c.72-.05,1.37-.48,1.69-1.13l1.95-3.9c.6-1.2,2.17-1.51,3.18-.63l3.28,2.87c.55.48,1.3.63,1.99.4l4.14-1.38c1.27-.42,2.6.47,2.69,1.8l.29,4.35c.05.72.48,1.37,1.13,1.69l3.9,1.95c1.2.6,1.51,2.17.63,3.18l-2.87,3.28c-.48.55-.63,1.3-.4,1.99l1.38,4.14c.42,1.27-.47,2.6-1.8,2.69l-4.35.29c-.72.05-1.37.48-1.69,1.13l-1.95,3.9c-.6,1.2-2.17,1.51-3.18.63Z"/>
        <path style="fill: #371386;" d="M164.67,268.29l-3.28-2.87c-.55-.48-1.3-.63-1.99-.4l-4.14,1.38c-1.27.42-2.6-.47-2.69-1.8l-.29-4.35c-.05-.72-.48-1.37-1.13-1.69l-3.9-1.95c-1.2-.6-1.51-2.17-.63-3.18l2.87-3.28c.48-.55.63-1.3.4-1.99l-1.38-4.14c-.42-1.27.47-2.6,1.8-2.69l4.35-.29c.72-.05,1.37-.48,1.69-1.13l1.95-3.9c.6-1.2,2.17-1.51,3.18-.63l3.28,2.87c.55.48,1.3.63,1.99.4l4.14-1.38c1.27-.42,2.6.47,2.69,1.8l.29,4.35c.05.72.48,1.37,1.13,1.69l3.9,1.95c1.2.6,1.51,2.17.63,3.18l-2.87,3.28c-.48.55-.63,1.3-.4,1.99l1.38,4.14c.42,1.27-.47,2.6-1.8,2.69l-4.35.29c-.72.05-1.37.48-1.69,1.13l-1.95,3.9c-.6,1.2-2.17,1.51-3.18.63Z"/>
      </g>
    </g>
    <path style="fill: #9a7fee;" d="M174.64,190.1c-5.02,0-9.3-1.8-12.86-5.39-3.55-3.6-5.41-7.94-5.58-13.04,0-.75.04-1.51.13-2.26s.21-1.51.38-2.26l10.54-42.14c1.17-4.52,3.55-8.17,7.15-10.97s7.69-4.2,12.29-4.2h48.92c4.6,0,8.7,1.4,12.29,4.2,3.6,2.8,5.98,6.46,7.15,10.97l10.54,42.14c.17.75.31,1.53.44,2.32s.19,1.57.19,2.32c0,5.1-1.82,9.43-5.46,12.98-3.64,3.55-8.01,5.33-13.11,5.33-3.51,0-6.77-.92-9.78-2.76s-5.27-4.35-6.77-7.53l-3.51-7.27c-.42-.84-1.05-1.46-1.88-1.88s-1.71-.63-2.63-.63h-23.83c-.92,0-1.8.21-2.63.63s-1.46,1.05-1.88,1.88l-3.51,7.27c-1.51,3.18-3.76,5.69-6.77,7.53s-6.27,2.76-9.78,2.76ZM218.69,143.69c1.07,0,1.96-.36,2.67-1.09.71-.72,1.07-1.62,1.07-2.7s-.36-1.96-1.09-2.67c-.72-.71-1.62-1.07-2.7-1.07s-1.96.36-2.67,1.09c-.71.72-1.07,1.62-1.07,2.7s.36,1.96,1.09,2.67c.72.71,1.62,1.07,2.7,1.07ZM228.72,133.65c1.07,0,1.96-.36,2.67-1.09.71-.72,1.07-1.62,1.07-2.7s-.36-1.96-1.09-2.67c-.72-.71-1.62-1.07-2.7-1.07s-1.96.36-2.67,1.09c-.71.72-1.07,1.62-1.07,2.7s.36,1.96,1.09,2.67c.72.71,1.62,1.07,2.7,1.07ZM228.72,153.72c1.07,0,1.96-.36,2.67-1.09.71-.72,1.07-1.62,1.07-2.7s-.36-1.96-1.09-2.67c-.72-.71-1.62-1.07-2.7-1.07s-1.96.36-2.67,1.09c-.71.72-1.07,1.62-1.07,2.7s.36,1.96,1.09,2.67c.72.71,1.62,1.07,2.7,1.07ZM238.76,143.69c1.07,0,1.96-.36,2.67-1.09.71-.72,1.07-1.62,1.07-2.7s-.36-1.96-1.09-2.67c-.72-.71-1.62-1.07-2.7-1.07s-1.96.36-2.67,1.09c-.71.72-1.07,1.62-1.07,2.7s.36,1.96,1.09,2.67c.72.71,1.62,1.07,2.7,1.07ZM193.6,151.84c.91,0,1.66-.3,2.24-.89.59-.59.88-1.34.88-2.25v-5.64h5.64c.91,0,1.65-.3,2.25-.89.59-.59.89-1.35.89-2.26s-.3-1.66-.89-2.24c-.59-.59-1.34-.88-2.25-.88h-5.64v-5.64c0-.91-.3-1.65-.89-2.25-.59-.59-1.35-.89-2.26-.89s-1.66.3-2.24.89c-.59.59-.88,1.34-.88,2.25v5.64h-5.64c-.91,0-1.65.3-2.25.89-.59.59-.89,1.35-.89,2.26s.3,1.66.89,2.24c.59.59,1.34.88,2.25.88h5.64v5.64c0,.91.3,1.65.89,2.25.59.59,1.35.89,2.26.89Z"/>
  </g>
</svg>