<?xml version="1.0" encoding="UTF-8"?>
<svg id="Ebene_2" data-name="Ebene 2" xmlns="http://www.w3.org/2000/svg" xmlns:xlink="http://www.w3.org/1999/xlink" viewBox="0 0 375 240">
  <defs>
    <clipPath id="clippath">
      <rect fill="none" width="375" height="240"/>
    </clipPath>
  </defs>
  <g id="Avatare">
    <g>
      <rect fill="#150042" width="375" height="240"/>
      <g clip-path="url(#clippath)">
        <g>
          <path fill="#371386" d="M339.95,68.51l-2.11-4.13c-.33-.65-1.12-.92-1.79-.61l-4.2,1.98c-1.24.58-2.46-.82-1.72-1.97l2.52-3.9c.4-.61.24-1.43-.36-1.85l-3.81-2.65c-1.12-.78-.52-2.54.84-2.47l4.64.24c.73.04,1.36-.51,1.42-1.24l.39-4.63c.11-1.36,1.94-1.72,2.56-.5l2.11,4.13c.33.65,1.12.92,1.79.61l4.2-1.98c1.24-.58,2.46.82,1.72,1.97l-2.52,3.9c-.4.61-.24,1.43.36,1.85l3.81,2.65c1.12.78.52,2.54-.84,2.47l-4.64-.24c-.73-.04-1.36.51-1.42,1.24l-.39,4.63c-.11,1.36-1.94,1.72-2.56.5Z"/>
          <path fill="#371386" d="M17.47,37.02l-2.11-4.13c-.33-.65-1.12-.92-1.79-.61l-4.2,1.98c-1.24.58-2.46-.82-1.72-1.97l2.52-3.9c.4-.61.24-1.43-.36-1.85l-3.81-2.65c-1.12-.78-.52-2.54.84-2.47l4.64.24c.73.04,1.36-.51,1.42-1.24l.39-4.63c.11-1.36,1.94-1.72,2.56-.5l2.11,4.13c.33.65,1.12.92,1.79.61l4.2-1.98c1.24-.58,2.46.82,1.72,1.97l-2.52,3.9c-.4.61-.24,1.43.36,1.85l3.81,2.65c1.12.78.52,2.54-.84,2.47l-4.64-.24c-.73-.04-1.36.51-1.42,1.24l-.39,4.63c-.11,1.36-1.94,1.72-2.56.5Z"/>
          <circle fill="#371386" cx="339.03" cy="26.25" r="11.19"/>
          <path fill="#371386" d="M39.69,24.62l1.66,28.66c.07,1.15.8,2.16,1.87,2.58l26.74,10.43c2,.78,4.15-.77,4.02-2.92l-1.66-28.66c-.07-1.15-.8-2.16-1.87-2.58l-26.74-10.43c-2-.78-4.15.77-4.02,2.92Z"/>
          <path fill="#371386" d="M292.07,45.83l26.74-10.43c1.08-.42,1.81-1.43,1.87-2.58l1.66-28.66c.12-2.15-2.02-3.7-4.02-2.92l-26.74,10.43c-1.08.42-1.81,1.43-1.87,2.58l-1.66,28.66c-.12,2.15,2.02,3.7,4.02,2.92Z"/>
          <path fill="#371386" d="M321.07,60.54c.02-6.69-5.52-12.16-12.21-12.16h-10.5c-.84,0-1.53.68-1.53,1.53v21.18c0,.84.68,1.53,1.53,1.53h10.59c6.68,0,12.09-5.4,12.12-12.07Z"/>
          <path fill="#371386" d="M135.19-2.88c.02-6.69-5.52-12.16-12.21-12.16h-10.5c-.84,0-1.53.68-1.53,1.53V7.66c0,.84.68,1.53,1.53,1.53h10.59c6.68,0,12.09-5.4,12.12-12.07Z"/>
          <path fill="#371386" d="M19.81,59l-9.43-12.98c-.65-.89-1.79-1.26-2.84-.92l-15.26,4.96c-1.05.34-1.76,1.32-1.76,2.42v16.05c0,1.1.71,2.08,1.76,2.42l15.26,4.96c1.05.34,2.19-.03,2.84-.92l9.43-12.98c.65-.89.65-2.1,0-2.99Z"/>
          <path fill="#371386" d="M75.94,79.21l-18.22-10.52c-1.49-.86-3.35.22-3.35,1.94v21.04c0,1.72,1.86,2.8,3.35,1.94l18.22-10.52c1.49-.86,1.49-3.01,0-3.87Z"/>
          <path fill="#371386" d="M375.03-7.46c0-10.99-8.91-19.9-19.9-19.9s-19.9,8.91-19.9,19.9,8.91,19.9,19.9,19.9,19.9-8.91,19.9-19.9ZM346.64-7.46c0-4.69,3.8-8.49,8.49-8.49s8.49,3.8,8.49,8.49-3.8,8.49-8.49,8.49-8.49-3.8-8.49-8.49Z"/>
          <path fill="#371386" d="M297.07,89.64c0-10.99-8.91-19.9-19.9-19.9s-19.9,8.91-19.9,19.9,8.91,19.9,19.9,19.9,19.9-8.91,19.9-19.9ZM268.67,89.64c0-4.69,3.8-8.49,8.49-8.49s8.49,3.8,8.49,8.49-3.8,8.49-8.49,8.49-8.49-3.8-8.49-8.49Z"/>
          <path fill="#371386" d="M51.1-7.46c0-10.99-8.91-19.9-19.9-19.9S11.3-18.45,11.3-7.46,20.21,12.44,31.2,12.44,51.1,3.53,51.1-7.46ZM22.7-7.46c0-4.69,3.8-8.49,8.49-8.49s8.49,3.8,8.49,8.49S35.89,1.03,31.2,1.03s-8.49-3.8-8.49-8.49Z"/>
          <path fill="#371386" d="M380.49,45.15h10.36c.84,0,1.51.7,1.48,1.54-.18,4.13-1.08,8.13-2.69,11.93-1.74,4.12-4.24,7.82-7.42,11-3.18,3.18-6.88,5.67-11,7.42-3.8,1.61-7.81,2.51-11.93,2.69-.84.04-1.54-.64-1.54-1.48v-10.36c0-.78.61-1.43,1.39-1.48,5.17-.33,9.98-2.5,13.68-6.2,3.69-3.69,5.87-8.51,6.2-13.68.05-.78.69-1.39,1.48-1.39Z"/>
          <path fill="#371386" d="M54.46,100.78l-.86,10.32c-.07.84-.83,1.45-1.66,1.34-4.1-.52-8.01-1.76-11.67-3.67-3.96-2.08-7.44-4.88-10.34-8.31-2.9-3.43-5.08-7.33-6.47-11.58-1.29-3.92-1.85-7.99-1.69-12.12.03-.84.76-1.48,1.6-1.41l10.32.86c.78.07,1.37.73,1.35,1.51-.1,5.18,1.66,10.15,5.04,14.14,3.37,3.99,7.99,6.55,13.11,7.32.78.12,1.33.81,1.27,1.59Z"/>
          <path fill="#371386" d="M371.87,41.76h.07c.35,3.32,3.16,5.91,6.57,5.91s6.22-2.59,6.57-5.91h.04v-16.11c0-3.65-2.96-6.61-6.61-6.61s-6.61,2.96-6.61,6.61c0-3.65-2.96-6.61-6.61-6.61s-6.61,2.96-6.61,6.61v16.11h.04c.35,3.32,3.16,5.91,6.57,5.91s6.22-2.59,6.57-5.91Z"/>
          <path fill="#371386" d="M261.62,38.09l-.03.03-.03.03c-2.62-2.07-6.43-1.88-8.82.56-2.39,2.44-2.5,6.26-.38,8.83l-.03.03,11.51,11.27c2.61,2.55,6.79,2.51,9.34-.1,2.55-2.61,2.51-6.79-.1-9.34,2.61,2.55,6.79,2.51,9.34-.1,2.55-2.61,2.51-6.79-.1-9.34l-11.51-11.27-.03.03c-2.62-2.07-6.43-1.88-8.82.56s-2.5,6.26-.38,8.83Z"/>
          <path fill="#371386" d="M186.47,15.84l2.11,4.13c.33.65,1.12.92,1.79.61l4.2-1.98c1.24-.58,2.46.82,1.72,1.97l-2.52,3.9c-.4.61-.24,1.43.36,1.85l3.81,2.65c1.12.78.52,2.54-.84,2.47l-4.64-.24c-.73-.04-1.36.51-1.42,1.24l-.39,4.63c-.11,1.36-1.94,1.72-2.56.5l-2.11-4.13c-.33-.65-1.12-.92-1.79-.61l-4.2,1.98c-1.24.58-2.46-.82-1.72-1.97l2.52-3.9c.4-.61.24-1.43-.36-1.85l-3.81-2.65c-1.12-.78-.52-2.54.84-2.47l4.64.24c.73.04,1.36-.51,1.42-1.24l.39-4.63c.11-1.36,1.94-1.72,2.56-.5Z"/>
          <path fill="#371386" d="M192.43-29.75l-26.74,10.43c-1.08.42-1.81,1.43-1.87,2.58l-1.66,28.66c-.12,2.15,2.02,3.7,4.02,2.92l26.74-10.43c1.08-.42,1.81-1.43,1.87-2.58l1.66-28.66c.12-2.15-2.02-3.7-4.02-2.92Z"/>
          <path fill="#371386" d="M73.58,96.75l9.43,12.98c.65.89,1.79,1.26,2.84.92l15.26-4.96c1.05-.34,1.76-1.32,1.76-2.42v-16.05c0-1.1-.71-2.08-1.76-2.42l-15.26-4.96c-1.05-.34-2.19.03-2.84.92l-9.43,12.98c-.65.89-.65,2.1,0,2.99Z"/>
          <path fill="#371386" d="M118.67,30.79c0,10.99,8.91,19.9,19.9,19.9s19.9-8.91,19.9-19.9-8.91-19.9-19.9-19.9-19.9,8.91-19.9,19.9ZM147.07,30.79c0,4.69-3.8,8.49-8.49,8.49s-8.49-3.8-8.49-8.49,3.8-8.49,8.49-8.49,8.49,3.8,8.49,8.49Z"/>
          <path fill="#371386" d="M240.77,38.62v10.36c0,.84-.7,1.51-1.54,1.48-4.13-.18-8.13-1.08-11.93-2.69-4.12-1.74-7.82-4.24-11-7.42-3.18-3.18-5.67-6.88-7.42-11-1.61-3.8-2.51-7.81-2.69-11.93-.04-.84.64-1.54,1.48-1.54h10.36c.78,0,1.43.61,1.48,1.39.33,5.17,2.5,9.98,6.2,13.68,3.69,3.69,8.51,5.87,13.68,6.2.78.05,1.39.69,1.39,1.48Z"/>
          <path fill="#371386" d="M77.93-15.45l4.73,9.05c.13.26.48.3.67.08l6.74-7.67c.27-.31.78-.07.72.33l-1.49,10.11c-.04.29.22.52.5.46l9.97-2.25c.4-.09.67.4.38.69l-7.15,7.3c-.2.21-.13.55.13.66l9.38,4.04c.38.16.31.71-.09.78l-10.07,1.7c-.28.05-.43.37-.28.61l5.22,8.78c.21.35-.17.76-.54.58l-9.15-4.54c-.26-.13-.57.04-.59.33l-.94,10.17c-.04.41-.58.52-.77.15l-4.73-9.05c-.13-.26-.48-.3-.67-.08l-6.74,7.67c-.27.31-.78.07-.72-.33l1.49-10.11c.04-.29-.22-.52-.5-.46l-9.97,2.25c-.4.09-.67-.4-.38-.69l7.15-7.3c.2-.21.13-.55-.13-.66l-9.38-4.04c-.38-.16-.31-.71.09-.78l10.07-1.7c.28-.05.43-.37.28-.61l-5.22-8.78c-.21-.35.17-.76.54-.58l9.15,4.54c.26.13.57-.04.59-.33l.94-10.17c.04-.41.58-.52.77-.15Z"/>
          <path fill="#371386" d="M329.2,75.57l4.73,9.05c.13.26.48.3.67.08l6.74-7.67c.27-.31.78-.07.72.33l-1.49,10.11c-.04.29.22.52.5.46l9.97-2.25c.4-.09.67.4.38.69l-7.15,7.3c-.2.21-.13.55.13.66l9.38,4.04c.38.16.31.71-.09.78l-10.07,1.7c-.28.05-.43.37-.28.61l5.22,8.78c.21.35-.17.76-.54.58l-9.15-4.54c-.26-.13-.57.04-.59.33l-.94,10.17c-.04.41-.58.52-.77.15l-4.73-9.05c-.13-.26-.48-.3-.67-.08l-6.74,7.67c-.27.31-.78.07-.72-.33l1.49-10.11c.04-.29-.22-.52-.5-.46l-9.97,2.25c-.4.09-.67-.4-.38-.69l7.15-7.3c.2-.21.13-.55-.13-.66l-9.38-4.04c-.38-.16-.31-.71.09-.78l10.07-1.7c.28-.05.43-.37.28-.61l-5.22-8.78c-.21-.35.17-.76.54-.58l9.15,4.54c.26.13.57-.04.59-.33l.94-10.17c.04-.41.58-.52.77-.15Z"/>
          <path fill="#371386" d="M98.88,34.24l3.28,2.87c.55.48,1.3.63,1.99.4l4.14-1.38c1.27-.42,2.6.47,2.69,1.8l.29,4.35c.05.72.48,1.37,1.13,1.69l3.9,1.95c1.2.6,1.51,2.17.63,3.18l-2.87,3.28c-.48.55-.63,1.3-.4,1.99l1.38,4.14c.42,1.27-.47,2.6-1.8,2.69l-4.35.29c-.72.05-1.37.48-1.69,1.13l-1.95,3.9c-.6,1.2-2.17,1.51-3.18.63l-3.28-2.87c-.55-.48-1.3-.63-1.99-.4l-4.14,1.38c-1.27.42-2.6-.47-2.69-1.8l-.29-4.35c-.05-.72-.48-1.37-1.13-1.69l-3.9-1.95c-1.2-.6-1.51-2.17-.63-3.18l2.87-3.28c.48-.55.63-1.3.4-1.99l-1.38-4.14c-.42-1.27.47-2.6,1.8-2.69l4.35-.29c.72-.05,1.37-.48,1.69-1.13l1.95-3.9c.6-1.2,2.17-1.51,3.18-.63Z"/>
          <path fill="#371386" d="M239.17-5.57l3.28,2.87c.55.48,1.3.63,1.99.4l4.14-1.38c1.27-.42,2.6.47,2.69,1.8l.29,4.35c.05.72.48,1.37,1.13,1.69l3.9,1.95c1.2.6,1.51,2.17.63,3.18l-2.87,3.28c-.48.55-.63,1.3-.4,1.99l1.38,4.14c.42,1.27-.47,2.6-1.8,2.69l-4.35.29c-.72.05-1.37.48-1.69,1.13l-1.95,3.9c-.6,1.2-2.17,1.51-3.18.63l-3.28-2.87c-.55-.48-1.3-.63-1.99-.4l-4.14,1.38c-1.27.42-2.6-.47-2.69-1.8l-.29-4.35c-.05-.72-.48-1.37-1.13-1.69l-3.9-1.95c-1.2-.6-1.51-2.17-.63-3.18l2.87-3.28c.48-.55.63-1.3.4-1.99l-1.38-4.14c-.42-1.27.47-2.6,1.8-2.69l4.35-.29c.72-.05,1.37-.48,1.69-1.13l1.95-3.9c.6-1.2,2.17-1.51,3.18-.63Z"/>
          <path fill="#371386" d="M99.66,197.48l2.11,4.13c.33.65,1.12.92,1.79.61l4.2-1.98c1.24-.58,2.46.82,1.72,1.97l-2.52,3.9c-.4.61-.24,1.43.36,1.85l3.81,2.65c1.12.78.52,2.54-.84,2.47l-4.64-.24c-.73-.04-1.36.51-1.42,1.24l-.39,4.63c-.11,1.36-1.94,1.72-2.56.5l-2.11-4.13c-.33-.65-1.12-.92-1.79-.61l-4.2,1.98c-1.24.58-2.46-.82-1.72-1.97l2.52-3.9c.4-.61.24-1.43-.36-1.85l-3.81-2.65c-1.12-.78-.52-2.54.84-2.47l4.64.24c.73.04,1.36-.51,1.42-1.24l.39-4.63c.11-1.36,1.94-1.72,2.56-.5Z"/>
          <path fill="#371386" d="M37.29,114.67l2.11,4.13c.33.65,1.12.92,1.79.61l4.2-1.98c1.24-.58,2.46.82,1.72,1.97l-2.52,3.9c-.4.61-.24,1.43.36,1.85l3.81,2.65c1.12.78.52,2.54-.84,2.47l-4.64-.24c-.73-.04-1.36.51-1.42,1.24l-.39,4.63c-.11,1.36-1.94,1.72-2.56.5l-2.11-4.13c-.33-.65-1.12-.92-1.79-.61l-4.2,1.98c-1.24.58-2.46-.82-1.72-1.97l2.52-3.9c.4-.61.24-1.43-.36-1.85l-3.81-2.65c-1.12-.78-.52-2.54.84-2.47l4.64.24c.73.04,1.36-.51,1.42-1.24l.39-4.63c.11-1.36,1.94-1.72,2.56-.5Z"/>
          <circle fill="#371386" cx="54.52" cy="186.82" r="11.19"/>
          <circle fill="#371386" cx="123.07" cy="186.82" r="11.19"/>
          <path fill="#371386" d="M363.79,203.49l-1.66-28.66c-.07-1.15-.8-2.16-1.87-2.58l-26.74-10.43c-2-.78-4.15.77-4.02,2.92l1.66,28.66c.07,1.15.8,2.16,1.87,2.58l26.74,10.43c2,.78,4.15-.77,4.02-2.92Z"/>
          <path fill="#371386" d="M106.97,150.37l-27.13,9.38c-1.09.38-1.86,1.36-1.97,2.51l-2.77,28.57c-.21,2.14,1.87,3.78,3.9,3.08l27.13-9.38c1.09-.38,1.86-1.36,1.97-2.51l2.77-28.57c.21-2.14-1.87-3.78-3.9-3.08Z"/>
          <path fill="#371386" d="M25.98,154.45c-.02,6.69,5.52,12.16,12.21,12.16h10.5c.84,0,1.53-.68,1.53-1.53v-21.18c0-.84-.68-1.53-1.53-1.53h-10.59c-6.68,0-12.09,5.4-12.12,12.07Z"/>
          <path fill="#371386" d="M344.9,146.82l18.22,10.52c1.49.86,3.35-.22,3.35-1.94v-21.04c0-1.72-1.86-2.8-3.35-1.94l-18.22,10.52c-1.49.86-1.49,3.01,0,3.87Z"/>
          <path fill="#371386" d="M263.9,2.97l18.22,10.52c1.49.86,3.35-.22,3.35-1.94V-9.49c0-1.72-1.86-2.8-3.35-1.94l-18.22,10.52c-1.49.86-1.49,3.01,0,3.87Z"/>
          <path fill="#371386" d="M19.79,225.8c0,10.99,8.91,19.9,19.9,19.9s19.9-8.91,19.9-19.9-8.91-19.9-19.9-19.9-19.9,8.91-19.9,19.9ZM48.18,225.8c0,4.69-3.8,8.49-8.49,8.49s-8.49-3.8-8.49-8.49,3.8-8.49,8.49-8.49,8.49,3.8,8.49,8.49Z"/>
          <path fill="#371386" d="M59.59,132.02c0,10.99,8.91,19.9,19.9,19.9s19.9-8.91,19.9-19.9-8.91-19.9-19.9-19.9-19.9,8.91-19.9,19.9ZM87.98,132.02c0,4.69-3.8,8.49-8.49,8.49s-8.49-3.8-8.49-8.49,3.8-8.49,8.49-8.49,8.49,3.8,8.49,8.49Z"/>
          <path fill="#371386" d="M351.13,234.29c0,10.99,8.91,19.9,19.9,19.9s19.9-8.91,19.9-19.9-8.91-19.9-19.9-19.9-19.9,8.91-19.9,19.9ZM379.52,234.29c0,4.69-3.8,8.49-8.49,8.49s-8.49-3.8-8.49-8.49,3.8-8.49,8.49-8.49,8.49,3.8,8.49,8.49Z"/>
          <path fill="#371386" d="M-3.49,179.47h-10.36c-.84,0-1.51-.7-1.48-1.54.18-4.13,1.08-8.13,2.69-11.93,1.74-4.12,4.24-7.82,7.42-11,3.18-3.18,6.88-5.67,11-7.42,3.8-1.61,7.81-2.51,11.93-2.69.84-.04,1.54.64,1.54,1.48v10.36c0,.78-.61,1.43-1.39,1.48-5.17.33-9.98,2.5-13.68,6.2-3.69,3.69-5.87,8.51-6.2,13.68-.05.78-.69,1.39-1.48,1.39Z"/>
          <path fill="#371386" d="M362.02,115.51l1.51-10.25c.12-.83.91-1.4,1.74-1.24,4.06.78,7.89,2.26,11.41,4.4,3.82,2.33,7.12,5.34,9.8,8.94,2.68,3.61,4.61,7.63,5.73,11.97,1.03,3.99,1.34,8.09.92,12.2-.09.84-.85,1.43-1.69,1.31l-10.25-1.51c-.78-.11-1.32-.81-1.26-1.59.43-5.16-1.02-10.24-4.13-14.43-3.12-4.2-7.56-7.05-12.62-8.13-.77-.16-1.28-.89-1.16-1.66Z"/>
          <path fill="#371386" d="M279.56,115.43l10.11-2.28c.82-.18,1.63.35,1.78,1.18.73,4.06.73,8.17,0,12.23-.79,4.4-2.41,8.56-4.82,12.36-2.4,3.8-5.46,7.04-9.1,9.65-3.35,2.4-7.06,4.16-11.05,5.25-.81.22-1.64-.28-1.83-1.1l-2.28-10.11c-.17-.76.28-1.52,1.04-1.75,4.97-1.46,9.19-4.64,11.98-9.05,2.79-4.42,3.85-9.59,3.04-14.7-.12-.77.37-1.51,1.13-1.68Z"/>
          <path fill="#371386" d="M18.02,174.72h-.07c-.35-3.32-3.16-5.91-6.57-5.91s-6.22,2.59-6.57,5.91h-.04v16.11c0,3.65,2.96,6.61,6.61,6.61s6.61-2.96,6.61-6.61c0,3.65,2.96,6.61,6.61,6.61s6.61-2.96,6.61-6.61v-16.11h-.04c-.35-3.32-3.16-5.91-6.57-5.91s-6.22,2.59-6.57,5.91Z"/>
          <path fill="#371386" d="M-7.43,205.42l3.28,2.87c.55.48,1.3.63,1.99.4l4.14-1.38c1.27-.42,2.6.47,2.69,1.8l.29,4.35c.05.72.48,1.37,1.13,1.69l3.9,1.95c1.2.6,1.51,2.17.63,3.18l-2.87,3.28c-.48.55-.63,1.3-.4,1.99l1.38,4.14c.42,1.27-.47,2.6-1.8,2.69l-4.35.29c-.72.05-1.37.48-1.69,1.13l-1.95,3.9c-.6,1.2-2.17,1.51-3.18.63l-3.28-2.87c-.55-.48-1.3-.63-1.99-.4l-4.14,1.38c-1.27.42-2.6-.47-2.69-1.8l-.29-4.35c-.05-.72-.48-1.37-1.13-1.69l-3.9-1.95c-1.2-.6-1.51-2.17-.63-3.18l2.87-3.28c.48-.55.63-1.3.4-1.99l-1.38-4.14c-.42-1.27.47-2.6,1.8-2.69l4.35-.29c.72-.05,1.37-.48,1.69-1.13l1.95-3.9c.6-1.2,2.17-1.51,3.18-.63Z"/>
          <path fill="#371386" d="M-8.34,112.38l3.28,2.87c.55.48,1.3.63,1.99.4l4.14-1.38c1.27-.42,2.6.47,2.69,1.8l.29,4.35c.05.72.48,1.37,1.13,1.69l3.9,1.95c1.2.6,1.51,2.17.63,3.18l-2.87,3.28c-.48.55-.63,1.3-.4,1.99l1.38,4.14c.42,1.27-.47,2.6-1.8,2.69l-4.35.29c-.72.05-1.37.48-1.69,1.13l-1.95,3.9c-.6,1.2-2.17,1.51-3.18.63l-3.28-2.87c-.55-.48-1.3-.63-1.99-.4l-4.14,1.38c-1.27.42-2.6-.47-2.69-1.8l-.29-4.35c-.05-.72-.48-1.37-1.13-1.69l-3.9-1.95c-1.2-.6-1.51-2.17-.63-3.18l2.87-3.28c.48-.55.63-1.3.4-1.99l-1.38-4.14c-.42-1.27.47-2.6,1.8-2.69l4.35-.29c.72-.05,1.37-.48,1.69-1.13l1.95-3.9c.6-1.2,2.17-1.51,3.18-.63Z"/>
          <circle fill="#371386" cx="247.94" cy="229.02" r="11.19"/>
          <circle fill="#371386" cx="176.04" cy="217.82" r="11.19"/>
          <path fill="#371386" d="M202.56,244.17l26.74-10.43c1.08-.42,1.81-1.43,1.87-2.58l1.66-28.66c.12-2.15-2.02-3.7-4.02-2.92l-26.74,10.43c-1.08.42-1.81,1.43-1.87,2.58l-1.66,28.66c-.12,2.15,2.02,3.7,4.02,2.92Z"/>
          <path fill="#371386" d="M332.39,134.03l-9.43-12.98c-.65-.89-1.79-1.26-2.84-.92l-15.26,4.96c-1.05.34-1.76,1.32-1.76,2.42v16.05c0,1.1.71,2.08,1.76,2.42l15.26,4.96c1.05.34,2.19-.03,2.84-.92l9.43-12.98c.65-.89.65-2.1,0-2.99Z"/>
          <path fill="#371386" d="M279.03,186.82c0-10.99-8.91-19.9-19.9-19.9s-19.9,8.91-19.9,19.9,8.91,19.9,19.9,19.9,19.9-8.91,19.9-19.9ZM250.64,186.82c0-4.69,3.8-8.49,8.49-8.49s8.49,3.8,8.49,8.49-3.8,8.49-8.49,8.49-8.49-3.8-8.49-8.49Z"/>
          <path fill="#371386" d="M282.47,231.08h.07c.35,3.32,3.16,5.91,6.57,5.91s6.22-2.59,6.57-5.91h.04v-16.11c0-3.65-2.96-6.61-6.61-6.61s-6.61,2.96-6.61,6.61c0-3.65-2.96-6.61-6.61-6.61s-6.61,2.96-6.61,6.61v16.11h.04c.35,3.32,3.16,5.91,6.57,5.91s6.22-2.59,6.57-5.91Z"/>
          <path fill="#371386" d="M73.21,232.39v.07c-3.32.35-5.91,3.16-5.91,6.57s2.59,6.22,5.91,6.57v.04h16.11c3.65,0,6.61-2.96,6.61-6.61s-2.96-6.61-6.61-6.61c3.65,0,6.61-2.96,6.61-6.61s-2.96-6.61-6.61-6.61h-16.11v.04c-3.32.35-5.91,3.16-5.91,6.57s2.59,6.22,5.91,6.57Z"/>
          <path fill="#371386" d="M326.02,242.56l-4.73-9.05c-.13-.26-.48-.3-.67-.08l-6.74,7.67c-.27.31-.78.07-.72-.33l1.49-10.11c.04-.29-.22-.52-.5-.46l-9.97,2.25c-.4.09-.67-.4-.38-.69l7.15-7.3c.2-.21.13-.55-.13-.66l-9.38-4.04c-.38-.16-.31-.71.09-.78l10.07-1.7c.28-.05.43-.37.28-.61l-5.22-8.78c-.21-.35.17-.76.54-.58l9.15,4.54c.26.13.57-.04.59-.33l.94-10.17c.04-.41.58-.52.77-.15l4.73,9.05c.13.26.48.3.67.08l6.74-7.67c.27-.31.78-.07.72.33l-1.49,10.11c-.04.29.22.52.5.46l9.97-2.25c.4-.09.67.4.38.69l-7.15,7.3c-.2.21-.13.55.13.66l9.38,4.04c.38.16.31.71-.09.78l-10.07,1.7c-.28.05-.43.37-.28.61l5.22,8.78c.21.35-.17.76-.54.58l-9.15-4.54c-.26-.13-.57.04-.59.33l-.94,10.17c-.04.41-.58.52-.77.15Z"/>
          <path fill="#371386" d="M304.11,188.58l-3.28-2.87c-.55-.48-1.3-.63-1.99-.4l-4.14,1.38c-1.27.42-2.6-.47-2.69-1.8l-.29-4.35c-.05-.72-.48-1.37-1.13-1.69l-3.9-1.95c-1.2-.6-1.51-2.17-.63-3.18l2.87-3.28c.48-.55.63-1.3.4-1.99l-1.38-4.14c-.42-1.27.47-2.6,1.8-2.69l4.35-.29c.72-.05,1.37-.48,1.69-1.13l1.95-3.9c.6-1.2,2.17-1.51,3.18-.63l3.28,2.87c.55.48,1.3.63,1.99.4l4.14-1.38c1.27-.42,2.6.47,2.69,1.8l.29,4.35c.05.72.48,1.37,1.13,1.69l3.9,1.95c1.2.6,1.51,2.17.63,3.18l-2.87,3.28c-.48.55-.63,1.3-.4,1.99l1.38,4.14c.42,1.27-.47,2.6-1.8,2.69l-4.35.29c-.72.05-1.37.48-1.69,1.13l-1.95,3.9c-.6,1.2-2.17,1.51-3.18.63Z"/>
          <path fill="#371386" d="M140.96,238.33l-3.28-2.87c-.55-.48-1.3-.63-1.99-.4l-4.14,1.38c-1.27.42-2.6-.47-2.69-1.8l-.29-4.35c-.05-.72-.48-1.37-1.13-1.69l-3.9-1.95c-1.2-.6-1.51-2.17-.63-3.18l2.87-3.28c.48-.55.63-1.3.4-1.99l-1.38-4.14c-.42-1.27.47-2.6,1.8-2.69l4.35-.29c.72-.05,1.37-.48,1.69-1.13l1.95-3.9c.6-1.2,2.17-1.51,3.18-.63l3.28,2.87c.55.48,1.3.63,1.99.4l4.14-1.38c1.27-.42,2.6.47,2.69,1.8l.29,4.35c.05.72.48,1.37,1.13,1.69l3.9,1.95c1.2.6,1.51,2.17.63,3.18l-2.87,3.28c-.48.55-.63,1.3-.4,1.99l1.38,4.14c.42,1.27-.47,2.6-1.8,2.69l-4.35.29c-.72.05-1.37.48-1.69,1.13l-1.95,3.9c-.6,1.2-2.17,1.51-3.18.63Z"/>
        </g>
      </g>
      <path fill="#9a7fee" d="M150,165c-2,0-3.75-.75-5.25-2.25s-2.25-3.25-2.25-5.25v-75c0-2,.75-3.75,2.25-5.25s3.25-2.25,5.25-2.25h57.75l24.75,24.75v57.75c0,2-.75,3.75-2.25,5.25s-3.25,2.25-5.25,2.25h-75ZM150,157.5h75v-53.57h-21.38v-21.43h-53.62v75ZM162.38,143.62h50.25v-7.5h-50.25v7.5ZM162.38,103.88h25.12v-7.5h-25.12v7.5ZM162.38,123.75h50.25v-7.5h-50.25v7.5ZM150,82.5v21.43-21.43,75-75Z"/>
    </g>
  </g>
</svg>