<svg width="200" height="147" viewBox="0 0 200 147" fill="none" xmlns="http://www.w3.org/2000/svg">
<path d="M-8 70.9828V8.86632C-8 3.82105 -3.80109 -0.210098 1.23304 0.0084881C25.9417 1.08617 49.942 6.49742 72.6984 16.133C97.3867 26.587 119.552 41.5474 138.574 60.5924C157.598 79.6398 172.538 101.829 182.98 126.547C192.604 149.331 198.008 173.357 199.085 198.098C199.303 203.138 195.277 207.342 190.238 207.342H128.196C123.502 207.342 119.661 203.672 119.361 198.985C117.376 167.999 104.373 139.143 82.2462 116.987C60.1194 94.8315 31.2982 81.8155 0.347056 79.8279C-4.33674 79.528 -8 75.6798 -8 70.9828Z" fill="#CEBDFF"/>
</svg>
