<svg width="152" height="96" viewBox="0 0 152 96" fill="none" xmlns="http://www.w3.org/2000/svg">
<path d="M168.474 32.2805L190.75 68.8308C192.559 71.7995 191.534 75.6773 188.494 77.354C173.568 85.581 157.506 91.0039 140.66 93.4952C122.384 96.1976 103.977 95.3435 85.9539 90.9589C67.9287 86.5737 51.1803 78.8751 36.172 68.0752C22.3383 58.1203 10.5416 45.9209 1.03562 31.749C-0.900363 28.8616 -0.0388628 24.944 2.92628 23.1369L39.4327 0.887262C42.1947 -0.796091 45.771 -0.0139648 47.6281 2.63644C59.9084 20.157 77.9079 32.4731 98.8733 37.5749C119.839 42.6766 141.465 39.9995 160.39 30.0693C163.254 28.5661 166.789 29.5167 168.474 32.2805Z" fill="#DBE1FF"/>
</svg>
