<svg width="99" height="79" viewBox="0 0 99 79" fill="none" xmlns="http://www.w3.org/2000/svg">
<path d="M66.0428 1.06568L96.1461 20.229C98.5899 21.7848 99.2477 25.0681 97.5866 27.4403C89.4324 39.0958 79.3981 49.0718 67.7002 57.1398C55.008 65.8928 40.9135 72.0325 25.8076 75.3869C10.7017 78.7412 -4.66675 79.1439 -19.8707 76.5855C-33.884 74.2267 -47.1984 69.4369 -59.5183 62.3263C-62.0279 60.8774 -62.821 57.627 -61.2653 55.1831L-42.1029 25.0814C-40.6539 22.8053 -37.6892 22.0729 -35.323 23.3732C-19.6938 31.9704 -1.69473 34.5624 15.8759 30.6607C33.4466 26.7591 48.6554 16.7916 59.1787 2.38855C60.7722 0.208906 63.7682 -0.382274 66.0444 1.06671L66.0428 1.06568Z" fill="#EBDDFF"/>
</svg>
