<svg width="81" height="79" viewBox="0 0 81 79" fill="none" xmlns="http://www.w3.org/2000/svg">
<path d="M77.9959 36.2555L63.6501 43.5984C61.3881 44.7575 60.4514 47.505 61.5329 49.8052L68.3974 64.3971C70.4156 68.6875 65.5541 72.9423 61.576 70.365L48.0527 61.5987C45.9202 60.2161 43.0744 60.7778 41.6248 62.867L32.4349 76.1169C29.7313 80.0133 23.6208 77.924 23.8645 73.1863L24.687 57.0771C24.8165 54.5354 22.91 52.3495 20.3764 52.1386L4.32201 50.794C-0.399864 50.3975 -1.64888 44.056 2.57034 41.8981L16.9162 34.5551C19.1781 33.3961 20.1149 30.6485 19.0334 28.3483L12.169 13.7564C10.1507 9.46602 15.0122 5.21123 18.9903 7.78851L32.5136 16.5548C34.6461 17.9375 37.4919 17.3758 38.9415 15.2865L48.1314 2.03665C50.835 -1.85976 56.9455 0.229515 56.7018 4.96723L55.8793 21.0765C55.7498 23.6182 57.6563 25.804 60.1899 26.015L76.2443 27.3595C80.9662 27.756 82.2152 34.0976 77.9959 36.2555Z" fill="#DBE1FF"/>
</svg>
