<svg width="113" height="130" viewBox="0 0 113 130" fill="none" xmlns="http://www.w3.org/2000/svg">
<path d="M128.064 58.8927L117.073 71.481C115.245 73.5759 114.662 76.4802 115.54 79.1178L120.823 94.9722C122.444 99.8404 119.032 104.928 113.912 105.275L97.2385 106.404C94.4652 106.592 91.9989 108.234 90.7539 110.72L83.279 125.665C80.9842 130.254 74.9733 131.437 71.1073 128.064L58.519 117.073C56.4241 115.245 53.5198 114.662 50.8822 115.54L35.0278 120.823C30.1596 122.444 25.0723 119.032 24.7248 113.912L23.5964 97.2385C23.4083 94.4652 21.7658 91.9989 19.2805 90.7539L4.3354 83.279C-0.254284 80.9842 -1.4374 74.9733 1.93583 71.1073L12.9268 58.519C14.755 56.4241 15.3383 53.5198 14.4599 50.8822L9.17744 35.0278C7.55629 30.1595 10.9676 25.0723 16.0882 24.7248L32.7615 23.5964C35.5348 23.4083 38.0011 21.7658 39.2461 19.2805L46.721 4.33541C49.0158 -0.254277 55.0267 -1.43741 58.8927 1.93582L71.481 12.9268C73.5759 14.7551 76.4802 15.3383 79.1178 14.4599L94.9722 9.17744C99.8404 7.55629 104.928 10.9676 105.275 16.0882L106.404 32.7615C106.592 35.5348 108.234 38.0011 110.72 39.2461L125.665 46.721C130.254 49.0158 131.437 55.0267 128.064 58.8927Z" fill="#DBE1FF"/>
</svg>
