<svg width="83" height="105" viewBox="0 0 83 105" fill="none" xmlns="http://www.w3.org/2000/svg">
<path d="M77.6679 71.6399L45.3316 74.1235C43.6653 74.2511 42.1391 75.102 41.1511 76.4478L21.9875 102.614C18.8474 106.902 12.0677 104.969 11.6598 99.6679L9.17613 67.3316C9.04854 65.6653 8.19767 64.1391 6.85188 63.1512L-19.314 43.9875C-23.602 40.8474 -21.6697 34.0677 -16.3683 33.6598L15.968 31.1761C17.6343 31.0486 19.1606 30.1977 20.1485 28.8519L39.3122 2.68598C42.4523 -1.60195 49.2319 0.330357 49.6398 5.63175L52.1235 37.968C52.2511 39.6343 53.102 41.1606 54.4478 42.1485L80.6137 61.3122C84.9016 64.4523 82.9693 71.2319 77.6679 71.6399Z" fill="#635B70"/>
</svg>
