<svg width="56" height="130" viewBox="0 0 56 130" fill="none" xmlns="http://www.w3.org/2000/svg">
<path d="M128.758 60.3088L105.077 72.5226C101.341 74.4478 99.7949 79.0188 101.583 82.8478L112.915 107.12C116.246 114.258 108.221 121.335 101.655 117.047L79.3308 102.464C75.8096 100.165 71.1126 101.099 68.7189 104.575L53.5486 126.612C49.0868 133.093 38.9994 129.62 39.3974 121.737L40.754 94.9399C40.9681 90.7126 37.8176 87.0782 33.6362 86.7254L7.1335 84.4901C-0.659638 83.8332 -2.72173 73.283 4.24235 69.6912L27.9232 57.4774C31.6585 55.5522 33.2051 50.9812 31.4173 47.1522L20.0849 22.8797C16.7536 15.7418 24.7788 8.6647 31.345 12.9529L53.6692 27.5359C57.1904 29.8351 61.8874 28.9014 64.2811 25.4252L79.4514 3.38807C83.9132 -3.09292 94.0006 0.380234 93.6026 8.26325L92.246 35.06C92.0319 39.2874 95.1824 42.9218 99.3638 43.2746L125.867 45.5099C133.66 46.1668 135.722 56.7171 128.758 60.3088Z" fill="#FFD9E1"/>
</svg>
