<svg width="60" height="82" viewBox="0 0 60 82" fill="none" xmlns="http://www.w3.org/2000/svg">
<path d="M80.3525 37.6768L65.5742 45.3072C63.2432 46.5098 62.278 49.3655 63.3937 51.7576L70.4658 66.9214C72.5448 71.3807 67.5365 75.8019 63.4389 73.123L49.5072 64.0125C47.3097 62.5761 44.3785 63.1594 42.8847 65.3311L33.4176 79.0984C30.6331 83.1473 24.338 80.9775 24.5863 76.0527L25.433 59.312C25.5665 56.671 23.6005 54.4005 20.991 54.1801L4.45173 52.7836C-0.411654 52.3732 -1.69852 45.7821 2.64748 43.5383L17.4258 35.9079C19.7568 34.7052 20.722 31.8495 19.6063 29.4575L12.5342 14.2937C10.4552 9.83438 15.4635 5.41311 19.5611 8.09209L33.4928 17.2025C35.6903 18.6389 38.6215 18.0556 40.1153 15.8839L49.5824 2.11663C52.3669 -1.93224 58.662 0.237544 58.4137 5.16231L57.567 21.9031C57.4335 24.5441 59.3995 26.8146 62.009 27.035L78.5483 28.4315C83.4117 28.8419 84.6985 35.4329 80.3525 37.6768Z" fill="#FFD9E1"/>
</svg>
