<svg width="119" height="184" viewBox="0 0 119 184" fill="none" xmlns="http://www.w3.org/2000/svg">
<path d="M179.808 75.6456L140.677 96.1265C139.573 96.7061 139.39 98.2133 140.327 99.0393L173.499 128.218C174.829 129.387 173.819 131.573 172.067 131.314L128.385 124.853C127.151 124.67 126.118 125.786 126.392 127.003L136.1 170.13C136.488 171.859 134.389 173.031 133.125 171.793L101.579 140.86C100.688 139.986 99.1982 140.281 98.7057 141.427L81.2398 182.031C80.5392 183.657 78.1528 183.37 77.8584 181.624L70.4963 138.034C70.2881 136.804 68.9096 136.163 67.8383 136.801L29.8704 159.372C28.3472 160.276 26.5854 158.64 27.3724 157.051L47.0063 117.454C47.5597 116.336 46.8209 115.009 45.5795 114.892L1.61277 110.807C-0.149046 110.645 -0.613609 108.281 0.955272 107.46L40.0859 86.979C41.1902 86.3995 41.373 84.8923 40.4362 84.0662L7.26379 54.8876C5.93354 53.7184 6.94393 51.5325 8.69559 51.7918L52.378 58.2528C53.6118 58.4358 54.645 57.32 54.3709 56.1025L44.6631 12.975C44.2747 11.2467 46.3741 10.075 47.6384 11.3128L79.1836 42.2452C80.0746 43.1195 81.5648 42.8247 82.0573 41.6784L99.5232 1.07481C100.224 -0.551872 102.61 -0.264698 102.905 1.48145L110.267 45.0715C110.475 46.3017 111.853 46.9422 112.925 46.3043L150.893 23.734C152.416 22.8291 154.178 24.466 153.391 26.0546L133.757 65.6517C133.203 66.77 133.942 68.0967 135.183 68.2136L179.15 72.2982C180.912 72.4608 181.377 74.8246 179.808 75.6456Z" fill="#FFD9E1"/>
</svg>
