<svg width="119" height="119" viewBox="0 0 119 119" fill="none" xmlns="http://www.w3.org/2000/svg">
<path d="M117.228 53.9095L107.167 65.4326C105.493 67.3503 104.96 70.0088 105.764 72.4232L110.599 86.9361C112.083 91.3924 108.96 96.0492 104.273 96.3673L89.0107 97.4002C86.472 97.5724 84.2144 99.076 83.0748 101.351L76.2323 115.031C74.1317 119.233 68.6294 120.316 65.0905 117.228L53.5674 107.167C51.6497 105.493 48.9912 104.96 46.5768 105.764L32.0639 110.599C27.6076 112.083 22.9508 108.96 22.6327 104.273L21.5998 89.0106C21.4276 86.472 19.924 84.2144 17.649 83.0747L3.96856 76.2323C-0.232767 74.1316 -1.31578 68.6294 1.77203 65.0905L11.833 53.5674C13.5065 51.6497 14.0404 48.9912 13.2363 46.5768L8.40089 32.0639C6.91691 27.6076 10.0396 22.9508 14.7269 22.6327L29.9894 21.5998C32.528 21.4276 34.7856 19.924 35.9253 17.649L42.7677 3.96857C44.8683 -0.232761 50.3706 -1.31578 53.9095 1.77202L65.4326 11.833C67.3503 13.5065 70.0088 14.0404 72.4232 13.2363L86.9361 8.40088C91.3924 6.91691 96.0492 10.0396 96.3673 14.7269L97.4002 29.9894C97.5724 32.528 99.076 34.7856 101.351 35.9253L115.031 42.7677C119.233 44.8683 120.316 50.3706 117.228 53.9095Z" fill="#DBE1FF"/>
</svg>
