<?xml version="1.0" encoding="UTF-8"?><svg id="Level_5" data-name="Level 5" xmlns="http://www.w3.org/2000/svg" xmlns:xlink="http://www.w3.org/1999/xlink" viewBox="0 0 200 200"><defs><clipPath id="clippath"><path d="M198.13,96.04l-27.55-22.66c-1.32-1.09-2.01-2.76-1.85-4.46l3.46-35.51c.3-3.04-2.11-5.62-5.09-5.62-.17,0-.34,0-.51.02l-35.51,3.46c-.17.02-.33.02-.5.02-1.52,0-2.98-.68-3.96-1.87L103.96,1.87C102.93.62,101.47,0,100,0s-2.93.62-3.96,1.87l-22.66,27.55c-.98,1.19-2.44,1.87-3.96,1.87-.17,0-.33,0-.5-.02l-35.51-3.46c-.17-.02-.34-.02-.51-.02-2.98,0-5.39,2.58-5.09,5.62l3.46,35.51c.17,1.7-.53,3.37-1.85,4.46L1.87,96.04c-2.49,2.05-2.49,5.87,0,7.92l27.55,22.66c1.32,1.09,2.01,2.76,1.85,4.46l-3.46,35.51c-.3,3.04,2.11,5.62,5.09,5.62.17,0,.34,0,.51-.02l35.51-3.46c.17-.02.33-.02.5-.02,1.52,0,2.98.68,3.96,1.87l22.66,27.55c1.03,1.25,2.49,1.87,3.96,1.87s2.93-.62,3.96-1.87l22.66-27.55c.98-1.19,2.44-1.87,3.96-1.87.16,0,.33,0,.5.02l35.51,3.46c.17.02.34.02.51.02,2.98,0,5.39-2.58,5.09-5.62l-3.46-35.51c-.17-1.7.53-3.37,1.85-4.46l27.55-22.66c2.49-2.05,2.49-5.87,0-7.92Z" fill="none"/></clipPath></defs><g><path d="M100,197.57c-.75,0-1.45-.33-1.93-.91l-22.81-27.72c-1.43-1.74-3.54-2.73-5.79-2.73-.24,0-.48.01-.73.04l-35.73,3.48c-.08,0-.17.01-.25.01-.7,0-1.37-.3-1.84-.82-.48-.53-.7-1.21-.63-1.92l3.48-35.73c.24-2.49-.77-4.93-2.7-6.52L3.34,101.93c-.58-.48-.91-1.18-.91-1.93s.33-1.45.91-1.93l27.72-22.81c1.93-1.59,2.94-4.03,2.7-6.52l-3.48-35.73c-.07-.71.16-1.39.63-1.92.47-.52,1.15-.82,1.84-.82.08,0,.17,0,.25.01l35.73,3.48c.24.02.49.04.73.04h0c2.25,0,4.36-1,5.79-2.74L98.07,3.34c.48-.58,1.18-.91,1.93-.91s1.45.33,1.93.91l22.81,27.72c1.43,1.74,3.54,2.74,5.79,2.74.24,0,.48-.01.73-.04l35.73-3.48c.08,0,.17-.01.25-.01.7,0,1.37.3,1.84.82.48.53.7,1.21.63,1.92l-3.48,35.73c-.24,2.49.77,4.93,2.7,6.52l27.72,22.81c.58.48.91,1.18.91,1.93s-.33,1.45-.91,1.93l-27.72,22.81c-1.93,1.59-2.94,4.03-2.7,6.52l3.48,35.73c.07.71-.16,1.39-.63,1.92-.47.52-1.15.82-1.84.82-.08,0-.17,0-.25-.01l-35.73-3.48c-.24-.02-.49-.04-.73-.04-2.25,0-4.36,1-5.79,2.73l-22.81,27.72c-.48.58-1.18.91-1.93.91Z" fill="#476c99"/><path d="M100,4.93l22.81,27.72c1.91,2.32,4.72,3.65,7.72,3.65.32,0,.65-.02.97-.05l35.73-3.48-3.48,35.73c-.32,3.32,1.02,6.57,3.6,8.69l27.72,22.81-27.72,22.81c-2.58,2.12-3.92,5.37-3.6,8.69l3.48,35.73-35.73-3.48c-.32-.03-.65-.05-.97-.05-3,0-5.82,1.33-7.72,3.65l-22.81,27.72-22.81-27.72c-1.91-2.32-4.72-3.65-7.72-3.65-.32,0-.65.02-.97.05l-35.73,3.48,3.48-35.73c.32-3.32-1.02-6.57-3.6-8.69l-27.72-22.81,27.72-22.81c2.58-2.12,3.92-5.37,3.6-8.69l-3.48-35.73,35.73,3.48c.32.03.65.05.97.05,3,0,5.82-1.33,7.72-3.65l22.8-27.72s0,0,0,0h0ZM100-.07c-1.43,0-2.86.61-3.86,1.82l-22.81,27.72c-.95,1.16-2.37,1.82-3.86,1.82-.16,0-.32,0-.48-.02l-35.73-3.48c-.17-.02-.33-.02-.49-.02-2.91,0-5.26,2.52-4.97,5.48l3.48,35.73c.16,1.66-.51,3.29-1.8,4.35L1.75,96.14c-2.43,2-2.43,5.72,0,7.72l27.72,22.81c1.29,1.06,1.96,2.69,1.8,4.35l-3.48,35.73c-.29,2.97,2.06,5.48,4.97,5.48.16,0,.33,0,.49-.02l35.73-3.48c.16-.02.32-.02.48-.02,1.49,0,2.91.66,3.86,1.82l22.81,27.72c1,1.22,2.43,1.82,3.86,1.82s2.86-.61,3.86-1.82l22.81-27.72c.95-1.16,2.37-1.82,3.86-1.82.16,0,.32,0,.48.02l35.73,3.48c.17.02.33.02.49.02,2.91,0,5.26-2.52,4.97-5.48l-3.48-35.73c-.16-1.66.51-3.29,1.8-4.35l27.72-22.81c2.43-2,2.43-5.72,0-7.72l-27.72-22.81c-1.29-1.06-1.96-2.69-1.8-4.35l3.48-35.73c.29-2.97-2.06-5.48-4.97-5.48-.16,0-.33,0-.49.02l-35.73,3.48c-.16.02-.32.02-.48.02-1.49,0-2.91-.66-3.86-1.82L103.86,1.75c-1-1.22-2.43-1.82-3.86-1.82h0Z" fill="#6b9ff2"/></g><g><path d="M73.83,195.38c-.3,0-.56-.11-.78-.33-.22-.22-.33-.47-.33-.77,0-.17.03-.32.1-.45l10.8-23.2h-13.75c-.37,0-.68-.13-.95-.4-.27-.27-.4-.58-.4-.95v-7.55c0-.37.13-.68.4-.95.27-.27.58-.4.95-.4h25.85c.4,0,.73.13.98.4.25.27.38.58.38.95v6.6c0,.57-.07,1.05-.2,1.45-.13.4-.28.77-.45,1.1l-10.9,23.35c-.1.17-.31.4-.62.7-.32.3-.79.45-1.43.45h-9.65Z" fill="#74bced" stroke="#476c99" stroke-miterlimit="10" stroke-width="2.5px"/><path d="M115.58,195.98c-3.53,0-6.48-.52-8.85-1.55-2.37-1.03-4.14-2.4-5.32-4.1-1.18-1.7-1.81-3.55-1.88-5.55,0-.3.11-.56.32-.77.22-.22.48-.33.78-.33h10.1c.53,0,.94.1,1.23.3.28.2.47.37.58.5.3.37.58.68.85.95.27.27.58.47.92.6.35.13.79.2,1.33.2s1.03-.12,1.5-.35c.47-.23.84-.58,1.12-1.05s.42-1.03.42-1.7c0-.53-.12-1.02-.35-1.48-.23-.45-.58-.82-1.03-1.12-.45-.3-1.01-.45-1.67-.45-.53,0-.96.06-1.28.17-.32.12-.58.26-.8.42-.22.17-.41.31-.58.43-.17.12-.35.17-.55.17h-9.95c-.3,0-.56-.11-.77-.32-.22-.22-.33-.48-.33-.78l2-18.1c.07-.57.29-.99.67-1.28.38-.28.81-.42,1.28-.42h22.35c.37,0,.68.13.95.4.27.27.4.58.4.95v7.05c0,.37-.13.68-.4.95-.27.27-.58.4-.95.4h-14.6l-.4,3.55c.93-.63,1.88-1.07,2.83-1.32s2.24-.38,3.88-.38c1.53,0,3.03.28,4.47.85,1.45.57,2.76,1.37,3.93,2.4,1.17,1.03,2.09,2.25,2.77,3.65.68,1.4,1.03,2.93,1.03,4.6,0,2.2-.6,4.25-1.8,6.15-1.2,1.9-2.98,3.43-5.35,4.6-2.37,1.17-5.32,1.75-8.85,1.75Z" fill="#74bced" stroke="#476c99" stroke-miterlimit="10" stroke-width="2.5px"/></g><path d="M65,135v-63c0-1.93.69-3.57,2.06-4.94s3.02-2.06,4.94-2.06h56c1.92,0,3.57.69,4.94,2.06,1.37,1.37,2.06,3.02,2.06,4.94v42c0,1.93-.69,3.57-2.06,4.94-1.37,1.37-3.02,2.06-4.94,2.06h-49l-14,14ZM89.76,107.88l10.24-6.21,10.24,6.21-2.71-11.64,9.1-7.88-11.99-.96-4.64-11.03-4.64,11.03-11.99.96,9.1,7.88-2.71,11.64Z" fill="#74bced"/><g clip-path="url(#clippath)"><g opacity=".5"><rect x="10.47" y="-39.33" width="92.09" height="181.42" transform="translate(52.88 -24.91) rotate(45)" fill="#86ccef" opacity=".5"/><rect x="90.64" y="-2.44" width="5.54" height="181.42" transform="translate(89.78 -40.19) rotate(45)" fill="#86ccef" opacity=".5"/></g></g></svg>