<?xml version="1.0" encoding="UTF-8"?><svg id="Level_2" data-name="Level 2" xmlns="http://www.w3.org/2000/svg" xmlns:xlink="http://www.w3.org/1999/xlink" viewBox="0 0 200 200"><defs><clipPath id="clippath"><path d="M198.5,96.37L103.63,1.5C102.63.5,101.31,0,100,0s-2.63.5-3.63,1.5L1.5,96.37c-2,2-2,5.25,0,7.25l94.87,94.87c1,1,2.31,1.5,3.63,1.5s2.63-.5,3.63-1.5l94.87-94.87c2-2,2-5.25,0-7.25Z" fill="none"/></clipPath></defs><g><path d="M100,197.55c-.67,0-1.29-.26-1.77-.73L3.18,101.77c-.47-.47-.73-1.1-.73-1.77s.26-1.3.73-1.77L98.23,3.18c.47-.47,1.1-.73,1.77-.73s1.3.26,1.77.73l95.05,95.05c.97.98.97,2.56,0,3.54l-95.05,95.05c-.47.47-1.1.73-1.77.73Z" fill="#7f7f7f"/><path d="M100,4.95l95.05,95.05-95.05,95.05L4.95,100,100,4.95s0,0,0,0h0ZM100-.05c-1.28,0-2.56.49-3.54,1.46L1.41,96.46c-1.95,1.95-1.95,5.12,0,7.07l95.05,95.05c.98.98,2.26,1.46,3.54,1.46s2.56-.49,3.54-1.46l95.05-95.05c1.95-1.95,1.95-5.12,0-7.07L103.54,1.41c-.98-.98-2.26-1.46-3.54-1.46h0Z" fill="#b4b4b4"/></g><rect x="27.79" y="27.79" width="144.43" height="144.43" rx="5" ry="5" transform="translate(100 -41.42) rotate(45)" fill="none"/><g><path d="M82.03,194.31c-.37,0-.68-.13-.95-.4-.27-.27-.4-.58-.4-.95v-20.2l-5.6,4.3c-.33.23-.67.31-1,.23-.33-.08-.63-.29-.9-.62l-4.4-5.7c-.17-.33-.22-.69-.15-1.07.07-.38.27-.68.6-.88l12.05-9.35c.17-.13.33-.23.5-.27.17-.05.37-.08.6-.08h9.45c.37,0,.68.13.95.4.27.27.4.58.4.95v32.3c0,.37-.13.68-.4.95-.27.27-.58.4-.95.4h-9.8Z" stroke="#7f7f7f" stroke-miterlimit="10" stroke-width="2.5px" fill="#d8d8d8"/><path d="M113.88,194.81c-2.5,0-4.7-.33-6.6-.98s-3.5-1.55-4.8-2.7c-1.3-1.15-2.31-2.5-3.02-4.05-.72-1.55-1.14-3.24-1.27-5.07-.07-.9-.11-2-.12-3.3-.02-1.3-.02-2.61,0-3.92.02-1.32.06-2.44.12-3.38.13-1.83.57-3.52,1.32-5.05.75-1.53,1.79-2.86,3.12-3.97,1.33-1.12,2.94-1.99,4.83-2.62,1.88-.63,4.02-.95,6.42-.95s4.54.32,6.43.95c1.88.63,3.49,1.51,4.82,2.62,1.33,1.12,2.38,2.44,3.12,3.97.75,1.53,1.19,3.22,1.33,5.05.07.93.11,2.06.12,3.38.02,1.32.02,2.62,0,3.92-.02,1.3-.06,2.4-.12,3.3-.13,1.83-.56,3.52-1.27,5.07-.72,1.55-1.73,2.9-3.03,4.05-1.3,1.15-2.9,2.05-4.8,2.7-1.9.65-4.1.98-6.6.98ZM113.88,185.01c.97,0,1.65-.31,2.05-.93.4-.62.62-1.39.65-2.32.07-.97.11-2.05.12-3.25.02-1.2.02-2.41,0-3.62s-.06-2.28-.12-3.18c-.03-.87-.24-1.62-.62-2.25-.38-.63-1.08-.97-2.08-1-1,.03-1.68.37-2.05,1-.37.63-.58,1.38-.65,2.25-.03.9-.06,1.96-.08,3.18-.02,1.22-.02,2.42,0,3.62.02,1.2.04,2.28.08,3.25.07.93.3,1.71.7,2.32.4.62,1.07.93,2,.93Z" stroke="#7f7f7f" stroke-miterlimit="10" stroke-width="2.5px" fill="#d8d8d8"/></g><path d="M65,96.39c.29-2.99.91-5.82,1.85-8.49.94-2.67,2.23-5.17,3.87-7.52,2.05,2.11,3.77,4.56,5.14,7.34s2.27,5.67,2.68,8.66h-13.54ZM121.46,96.39c.41-2.99,1.29-5.86,2.64-8.62s3.08-5.19,5.19-7.3c1.64,2.29,2.93,4.78,3.87,7.47s1.55,5.51,1.85,8.44h-13.54ZM70.72,119.52c-1.64-2.29-2.93-4.76-3.87-7.43-.94-2.67-1.55-5.5-1.85-8.49h13.54c-.41,2.99-1.3,5.86-2.68,8.62-1.38,2.76-3.09,5.19-5.14,7.3ZM129.28,119.52c-2.11-2.11-3.84-4.54-5.19-7.3s-2.23-5.63-2.64-8.62h13.54c-.29,2.93-.91,5.75-1.85,8.44-.94,2.7-2.23,5.19-3.87,7.47ZM85.67,96.39c-.47-4.22-1.61-8.12-3.43-11.7-1.82-3.58-4.19-6.8-7.12-9.67,2.81-2.81,6.02-5.07,9.63-6.77s7.49-2.78,11.65-3.25v31.39h-10.73ZM103.61,96.39v-31.39c4.16.47,8.05,1.55,11.65,3.25,3.61,1.7,6.82,3.96,9.63,6.77-2.99,2.81-5.38,6.02-7.17,9.63-1.79,3.61-2.92,7.52-3.39,11.74h-10.73ZM96.39,135c-4.22-.47-8.12-1.57-11.7-3.3-3.58-1.73-6.77-4-9.59-6.82,2.99-2.81,5.38-6.01,7.17-9.59,1.79-3.58,2.92-7.47,3.39-11.7h10.73v31.39ZM103.61,135v-31.39h10.73c.47,4.22,1.6,8.13,3.39,11.74,1.79,3.61,4.18,6.82,7.17,9.63-2.81,2.81-6.02,5.07-9.63,6.77-3.61,1.7-7.49,2.78-11.65,3.25Z" fill="#d8d8d8"/><g clip-path="url(#clippath)"><g opacity=".5"><rect x="34.89" y="-11.91" width="64.39" height="157.99" transform="translate(67.09 -27.79) rotate(45)" fill="#fff" opacity=".5"/><rect x="91.46" y="15.3" width="5.69" height="157.99" transform="translate(94.3 -39.06) rotate(45)" fill="#fff" opacity=".5"/></g></g></svg>