<svg width="57" height="56" viewBox="0 0 57 56" fill="none" xmlns="http://www.w3.org/2000/svg">
<path fill-rule="evenodd" clip-rule="evenodd" d="M31.6032 22.6663H33.0923L33.093 22.6658C33.0965 22.6658 33.1 22.6662 33.1035 22.6663H33.2981C34.3811 22.6663 35.3328 22.8484 36.1535 23.2129C36.9731 23.5775 37.612 24.1203 38.0685 24.8417C38.5243 25.5626 38.753 26.4586 38.753 27.5287V33.9777C38.753 35.0477 38.5243 35.9438 38.0685 36.6647C37.612 37.3861 36.9731 37.9289 36.1535 38.2935C35.3328 38.658 34.3811 38.8401 33.2981 38.8401H33.1085C33.1033 38.8402 33.098 38.8408 33.0928 38.8408L33.0923 38.8401H31.6032L31.6028 38.8408C31.5976 38.8408 31.5924 38.8402 31.5873 38.8401H31.3975C30.3145 38.8401 29.363 38.658 28.5423 38.2935C27.7227 37.9289 27.0838 37.3861 26.6274 36.6647C26.1715 35.9438 25.9426 35.0478 25.9426 33.9777V27.5797C25.9426 27.578 25.9429 27.5762 25.9429 27.5745V27.5287C25.9429 26.4586 26.1715 25.5626 26.6274 24.8417C27.0838 24.1203 27.7227 23.5775 28.5423 23.2129C29.363 22.8484 30.3147 22.6663 31.3977 22.6663H31.5873C31.5924 22.6662 31.5976 22.6656 31.6028 22.6656L31.6032 22.6663ZM31.866 26.2285C31.6097 26.2412 31.4033 26.2984 31.2473 26.4003C31.0696 26.5167 30.9457 26.6877 30.8759 26.9123C30.8063 27.1364 30.7717 27.3799 30.7715 27.6431V33.8615C30.7716 34.1254 30.8061 34.3695 30.8759 34.5941C30.9457 34.8187 31.0696 34.9897 31.2473 35.1061C31.4256 35.2225 31.6696 35.2806 31.9788 35.2806H32.7168C33.026 35.2806 33.2702 35.2225 33.4485 35.1061C33.6263 34.9897 33.7501 34.8187 33.8199 34.5941C33.8897 34.3695 33.9243 34.1254 33.9243 33.8615V27.6431C33.9241 27.3799 33.8895 27.1364 33.8199 26.9123C33.7501 26.6877 33.6263 26.5167 33.4485 26.4003C33.2702 26.2839 33.026 26.2257 32.7168 26.2257H31.9788L31.866 26.2285Z" fill="#1D1B20"/>
<path d="M45.3663 35.2727C45.5369 35.2727 45.6796 35.3308 45.7958 35.4472C45.9119 35.5636 45.9699 35.7071 45.9699 35.8776V38.2358C45.9699 38.4063 45.9119 38.5498 45.7958 38.6662C45.6796 38.7826 45.5364 38.8408 45.3663 38.8408H41.7448C41.5742 38.8408 41.4316 38.7826 41.3155 38.6662C41.1994 38.5498 41.1412 38.4063 41.1412 38.2358V35.8776C41.1412 35.7071 41.1994 35.5636 41.3155 35.4472C41.4317 35.3308 41.5747 35.2727 41.7448 35.2727H45.3663Z" fill="#1D1B20"/>
<path d="M18.3388 23.6276C19.4218 23.6276 20.3733 23.8098 21.1939 24.1743C22.0141 24.5388 22.6525 25.0817 23.1089 25.8031C23.5653 26.5244 23.7936 27.42 23.7936 28.49V38.2265C23.7936 38.397 23.7355 38.5405 23.6193 38.6569C23.5032 38.7733 23.3601 38.8314 23.19 38.8314H19.5686C19.3979 38.8314 19.2552 38.7733 19.1391 38.6569C19.0229 38.5405 18.9647 38.397 18.9647 38.2265V28.6058C18.9647 28.3419 18.9302 28.0978 18.8604 27.8732C18.7906 27.6486 18.6667 27.4776 18.489 27.3612C18.3107 27.2448 18.0672 27.1867 17.7575 27.1867H15.8532V28.3914H15.8603C15.8608 28.424 15.8619 28.4573 15.8619 28.4905V34.0686H15.8624V38.2271C15.8623 38.3976 15.8044 38.541 15.6883 38.6574C15.5721 38.7738 15.4289 38.8321 15.2587 38.8321H11.6373C11.4667 38.8321 11.3241 38.7738 11.208 38.6574C11.0919 38.541 11.0337 38.3976 11.0337 38.2271V34.0686H11.0266C11.0261 34.036 11.025 34.0029 11.025 33.9697V24.2331C11.025 24.0626 11.0832 23.919 11.1993 23.8026C11.3155 23.6863 11.4586 23.6281 11.6286 23.6281H12.5499C12.5619 23.6275 12.574 23.6265 12.5864 23.6265H18.3388V23.6276Z" fill="#1D1B20"/>
<path d="M45.3663 23.6183C45.5364 23.6183 45.6796 23.6767 45.7958 23.7931C45.9119 23.9095 45.9699 24.053 45.9699 24.2235V33.7332C45.9699 33.9037 45.9119 34.0472 45.7958 34.1636C45.6796 34.28 45.5369 34.3382 45.3663 34.3382H41.7448C41.5747 34.3382 41.4317 34.28 41.3155 34.1636C41.1994 34.0472 41.1412 33.9037 41.1412 33.7332V24.2235C41.1412 24.053 41.1994 23.9095 41.3155 23.7931C41.4317 23.6767 41.5742 23.6183 41.7448 23.6183H45.3663Z" fill="#1D1B20"/>
<path d="M31.0008 17.3652C31.1714 17.3652 31.3142 17.4234 31.4303 17.5398C31.5464 17.6562 31.6044 17.7997 31.6044 17.9702V20.3284C31.6044 20.4989 31.5464 20.6424 31.4303 20.7588C31.3142 20.8752 31.1709 20.9334 31.0008 20.9334H27.3798C27.2092 20.9333 27.0666 20.8752 26.9505 20.7588C26.8343 20.6424 26.7762 20.4989 26.7762 20.3284V17.9702C26.7762 17.7997 26.8343 17.6562 26.9505 17.5398C27.0666 17.4234 27.2097 17.3653 27.3798 17.3652H31.0008Z" fill="#1D1B20"/>
<path d="M37.316 17.3652C37.4867 17.3652 37.6294 17.4234 37.7456 17.5398C37.8617 17.6562 37.9197 17.7997 37.9197 17.9702V20.3284C37.9197 20.4989 37.8617 20.6424 37.7456 20.7588C37.6294 20.8752 37.4862 20.9334 37.316 20.9334H33.695C33.5244 20.9334 33.3819 20.8752 33.2657 20.7588C33.1496 20.6424 33.0914 20.4989 33.0914 20.3284V17.9702C33.0914 17.7997 33.1496 17.6562 33.2657 17.5398C33.3819 17.4234 33.525 17.3652 33.695 17.3652H37.316Z" fill="#1D1B20"/>
</svg>
