<svg width="56" height="56" viewBox="0 0 56 56" fill="none" xmlns="http://www.w3.org/2000/svg">
<g filter="url(#filter0_f_60254_16998)">
<path d="M19.0425 41.9589L19.6548 42.3209C22.2263 43.8442 25.1748 44.65 28.1817 44.6513H28.188C37.4219 44.6513 44.9369 37.1524 44.9407 27.9356C44.9423 23.4692 43.2014 19.2692 40.0384 16.1098C38.487 14.5516 36.6414 13.3161 34.6084 12.4747C32.5754 11.6333 30.3954 11.2027 28.1945 11.2078C18.9535 11.2078 11.4383 18.7059 11.435 27.9222C11.4304 31.0693 12.3184 34.1534 13.9961 36.818L14.3947 37.4502L12.702 43.6181L19.0425 41.9589ZM7.86243 48.3964L10.7222 37.9751C8.95849 34.9254 8.03063 31.4655 8.03173 27.9208C8.03638 16.8319 17.0778 7.81055 28.1882 7.81055C33.5798 7.81328 38.6404 9.90743 42.4464 13.7088C46.2524 17.5102 48.3464 22.5631 48.3445 27.937C48.3396 39.0251 39.2968 48.0481 28.188 48.0481H28.1792C24.8061 48.0467 21.4916 47.2021 18.5475 45.5998L7.86243 48.3964Z" fill="#B3B3B3"/>
</g>
<path d="M7.65558 48.1894L10.5153 37.7681C8.74861 34.711 7.82061 31.243 7.82488 27.7138C7.82954 16.6248 16.8709 7.60352 27.9814 7.60352C33.373 7.60625 38.4336 9.7004 42.2395 13.5018C46.0455 17.3032 48.1396 22.3561 48.1376 27.7299C48.1327 38.8181 39.09 47.841 27.9811 47.841H27.9724C24.5992 47.8397 21.2847 46.9951 18.3406 45.3928L7.65558 48.1894Z" fill="white"/>
<path d="M27.9876 11C18.7465 11 11.2313 18.4981 11.228 27.7144C11.2235 30.8615 12.1114 33.9456 13.7892 36.6102L14.1878 37.2427L12.4951 43.4105L18.8358 41.7511L19.4481 42.1132C22.0197 43.6364 24.9682 44.4419 27.975 44.4435H27.9813C37.2153 44.4435 44.7305 36.9446 44.734 27.7278C44.741 25.531 44.3113 23.3547 43.4698 21.3247C42.6283 19.2948 41.3918 17.4517 39.8317 15.902C38.2803 14.3438 36.4347 13.1083 34.4016 12.2668C32.3686 11.4254 30.1885 10.9948 27.9876 11Z" fill="url(#paint0_linear_60254_16998)"/>
<path fill-rule="evenodd" clip-rule="evenodd" d="M22.9434 19.3059C22.5659 18.469 22.1687 18.452 21.8101 18.4375L20.8447 18.4258C20.5088 18.4258 19.9631 18.5516 19.5018 19.0547C19.0405 19.5578 17.739 20.7737 17.739 23.2468C17.739 25.7199 19.5437 28.1096 19.7952 28.4454C20.0467 28.7811 23.2793 34.018 28.3985 36.0329C32.6527 37.7073 33.5183 37.3743 34.4421 37.2906C35.3658 37.2069 37.4218 36.0747 37.8412 34.9009C38.2606 33.7271 38.2609 32.7214 38.1352 32.5112C38.0094 32.3009 37.6736 32.176 37.1695 31.9244C36.6654 31.6729 34.1898 30.457 33.7282 30.2891C33.2666 30.1212 32.931 30.0378 32.5949 30.5409C32.2587 31.044 31.2947 32.1757 31.0008 32.5112C30.7068 32.8467 30.4134 32.8888 29.9093 32.6375C29.4053 32.3862 27.7835 31.8552 25.8593 30.1428C24.3622 28.8104 23.3516 27.1649 23.0574 26.6621C22.7632 26.1593 23.0261 25.887 23.2787 25.6365C23.5047 25.4112 23.7822 25.0495 24.0345 24.7561C24.2868 24.4627 24.3699 24.253 24.5375 23.918C24.7052 23.5831 24.6216 23.2889 24.4956 23.0376C24.3696 22.7863 23.391 20.3001 22.9434 19.3059Z" fill="white"/>
<defs>
<filter id="filter0_f_60254_16998" x="0.800427" y="0.748547" width="54.6061" height="54.7099" filterUnits="userSpaceOnUse" color-interpolation-filters="sRGB">
<feFlood flood-opacity="0" result="BackgroundImageFix"/>
<feBlend mode="normal" in="SourceGraphic" in2="BackgroundImageFix" result="shape"/>
<feGaussianBlur stdDeviation="3.531" result="effect1_foregroundBlur_60254_16998"/>
</filter>
<linearGradient id="paint0_linear_60254_16998" x1="27.64" y1="13.007" x2="27.8092" y2="41.5865" gradientUnits="userSpaceOnUse">
<stop stop-color="#57D163"/>
<stop offset="1" stop-color="#23B33A"/>
</linearGradient>
</defs>
</svg>
