<svg width="57" height="56" viewBox="0 0 57 56" fill="none" xmlns="http://www.w3.org/2000/svg">
<path fill-rule="evenodd" clip-rule="evenodd" d="M38.6179 19.8047C38.6404 19.8047 38.6624 19.8059 38.684 19.8079H38.7722C39.8543 19.8079 40.8051 19.9893 41.6246 20.3525C42.444 20.7156 43.0819 21.2563 43.5379 21.9744C43.994 22.6925 44.222 23.5852 44.222 24.6511V26.5743C44.222 27.6403 43.994 28.5329 43.5379 29.251C43.0819 29.9691 42.444 30.5096 41.6246 30.8728C40.8051 31.2359 39.8543 31.4176 38.7722 31.4176H36.2989V35.8149C36.2989 35.9848 36.2409 36.1276 36.1248 36.2435C36.0088 36.3595 35.8663 36.4176 35.6958 36.4176H32.078C31.908 36.4176 31.7649 36.3595 31.6489 36.2435C31.5328 36.1276 31.4748 35.9848 31.4748 35.8149V24.6482C31.4748 23.5822 31.7028 22.6901 32.1588 21.9715C32.6149 21.2533 33.2527 20.7126 34.0722 20.3495C34.8922 19.9864 35.8431 19.8047 36.9246 19.8047H38.6179ZM37.4013 23.3532C37.141 23.365 36.9318 23.4219 36.7745 23.5246C36.5968 23.6405 36.473 23.811 36.4033 24.0343C36.3336 24.2581 36.2989 24.5012 36.2989 24.7642V27.8715H38.1925C38.5014 27.8715 38.7449 27.8136 38.923 27.6977C39.1006 27.5823 39.2242 27.4119 39.294 27.1882C39.3625 26.9684 39.3969 26.7298 39.3981 26.4722V24.7667C39.3981 24.5037 39.3635 24.2606 39.2937 24.0368C39.224 23.8131 39.1004 23.6428 38.9228 23.5273C38.7446 23.4114 38.5014 23.3532 38.1925 23.3532H37.4013Z" fill="#1D1B20"/>
<path d="M19.7154 19.964C19.8853 19.964 20.0284 20.0221 20.1445 20.1381C20.2604 20.254 20.3185 20.3969 20.3185 20.5667V31.4577C20.3185 31.7206 20.353 31.9638 20.4227 32.1875C20.4924 32.4113 20.6162 32.5818 20.7939 32.6973C20.972 32.8132 21.2153 32.8711 21.5242 32.8711H23.4041C23.4041 32.8711 23.4045 32.6397 23.4045 31.5737V20.5667C23.4045 20.3969 23.4626 20.254 23.5786 20.1381C23.6946 20.0221 23.8377 19.964 24.0077 19.964H27.6257C27.7962 19.964 27.9387 20.0221 28.0548 20.1381C28.1708 20.254 28.2289 20.3968 28.2289 20.5667V31.4572C28.2289 31.7202 28.2635 31.9633 28.3332 32.1871C28.4029 32.4103 28.5266 32.5806 28.7042 32.6966C28.8818 32.8125 29.1258 32.8707 29.4347 32.8707H29.9406C30.1106 32.8707 30.2536 32.9286 30.3697 33.0445C30.4857 33.1605 30.5437 33.303 30.5437 33.4734V35.8138C30.5437 35.9836 30.4857 36.1266 30.3697 36.2426C30.2536 36.3585 30.1106 36.4165 29.9406 36.4165L29.9401 36.4172H20.9445L20.944 36.4165C19.8619 36.4165 18.9111 36.235 18.0916 35.8719C17.2721 35.5087 16.6343 34.9681 16.1782 34.2499C15.7222 33.5318 15.4942 32.6392 15.4942 31.5732V20.5667C15.4942 20.3968 15.5523 20.254 15.6683 20.1381C15.7843 20.0221 15.9274 19.964 16.0974 19.964H19.7154Z" fill="#1D1B20"/>
<path d="M50.329 32.8625C50.4995 32.8625 50.642 32.9204 50.7581 33.0363C50.8741 33.1523 50.9322 33.2953 50.9322 33.4652V35.8145C50.9321 35.9843 50.8741 36.1271 50.7581 36.2431C50.642 36.359 50.499 36.4169 50.329 36.4169H46.711C46.5405 36.4169 46.3979 36.359 46.2819 36.2431C46.1659 36.1271 46.1078 35.9843 46.1078 35.8145V33.4652C46.1078 33.2953 46.1658 33.1523 46.2819 33.0363C46.3979 32.9204 46.541 32.8625 46.711 32.8625H50.329Z" fill="#1D1B20"/>
<path d="M13.0287 24.4479C13.1987 24.4479 13.3417 24.5058 13.4578 24.6217C13.5738 24.7377 13.6318 24.8805 13.6319 25.0504V31.5728C13.6319 32.6387 13.4034 33.5308 12.9478 34.2495C12.4918 34.9676 11.8539 35.5083 11.0344 35.8714C10.215 36.234 9.26413 36.416 8.18202 36.416H6.48853V36.4165C6.31856 36.4165 6.1755 36.3586 6.05946 36.2426C5.94342 36.1267 5.88538 35.9836 5.88538 35.8138V33.4734C5.88538 33.303 5.94342 33.1605 6.05946 33.0445C6.1755 32.9286 6.31856 32.8707 6.48853 32.8707H7.60188C7.91079 32.8707 8.15457 32.8125 8.33219 32.6966C8.50979 32.5806 8.63342 32.4103 8.70315 32.1871C8.77288 31.9633 8.80751 31.7202 8.80751 31.4572V25.0504C8.80754 24.8806 8.8656 24.7377 8.9816 24.6217C9.09763 24.5058 9.24019 24.4479 9.41067 24.4479H13.0287Z" fill="#1D1B20"/>
<path d="M50.329 19.964C50.499 19.964 50.642 20.0221 50.7581 20.1381C50.8741 20.254 50.9321 20.3968 50.9322 20.5667V31.3296C50.9321 31.4994 50.8741 31.6423 50.7581 31.7582C50.642 31.8742 50.499 31.9323 50.329 31.9323H46.711C46.541 31.9323 46.3979 31.8742 46.2819 31.7582C46.1659 31.6423 46.1078 31.4994 46.1078 31.3296V20.5667C46.1078 20.3968 46.1659 20.254 46.2819 20.1381C46.3979 20.0221 46.541 19.964 46.711 19.964H50.329Z" fill="#1D1B20"/>
<path d="M13.0282 19.964C13.1988 19.964 13.3413 20.0221 13.4573 20.1381C13.5733 20.254 13.6314 20.3968 13.6314 20.5667V22.916C13.6314 23.0858 13.5733 23.2286 13.4573 23.3446C13.3413 23.4605 13.1982 23.5187 13.0282 23.5187H9.41021C9.23973 23.5186 9.09718 23.4605 8.98114 23.3446C8.86515 23.2286 8.80707 23.0858 8.80706 22.916V20.5667C8.80706 20.3969 8.86516 20.254 8.98114 20.1381C9.09718 20.0221 9.24024 19.964 9.41021 19.964H13.0282Z" fill="#1D1B20"/>
</svg>
