<svg width="40" height="40" viewBox="0 0 40 40" fill="none" xmlns="http://www.w3.org/2000/svg">
<g clip-path="url(#clip0_60055_46362)">
<path d="M20 40C31.0455 40 39.9997 31.0457 39.9997 20C39.9997 8.9543 31.0455 0 20 0C8.95447 0 0.000305176 8.9543 0.000305176 20C0.000305176 31.0457 8.95447 40 20 40Z" fill="#1D1B20"/>
<mask id="mask0_60055_46362" style="mask-type:luminance" maskUnits="userSpaceOnUse" x="0" y="0" width="40" height="40">
<path d="M20 40C31.0455 40 39.9997 31.0457 39.9997 20C39.9997 8.9543 31.0455 0 20 0C8.95447 0 0.000305176 8.9543 0.000305176 20C0.000305176 31.0457 8.95447 40 20 40Z" fill="white"/>
</mask>
<g mask="url(#mask0_60055_46362)">
<path d="M32.7357 26.5987L22.0318 33.1463C21.4802 33.4836 21.1041 34.0454 21.0006 34.6829L19.0038 47.0713C18.6767 49.1014 16.0007 49.629 14.927 47.8743L8.37941 37.1704C8.04214 36.6188 7.48034 36.2427 6.84276 36.1392L-5.5456 34.1424C-7.57568 33.8153 -8.1033 31.1393 -6.34858 30.0656L4.3553 23.518C4.90694 23.1807 5.28301 22.6189 5.3865 21.9813L7.38332 9.59298C7.71042 7.5629 10.3864 7.03528 11.4601 8.79L18.0077 19.4939C18.345 20.0455 18.9068 20.4216 19.5444 20.5251L31.9327 22.5219C33.9628 22.849 34.4904 25.525 32.7357 26.5987Z" fill="#9A7FEE"/>
</g>
<path d="M12.7959 26.2015C13.051 26.2015 13.2579 25.9947 13.2579 25.7395C13.2579 25.4844 13.051 25.2775 12.7959 25.2775C12.5407 25.2775 12.3339 25.4844 12.3339 25.7395C12.3339 25.9947 12.5407 26.2015 12.7959 26.2015Z" fill="#1D1B20"/>
<path d="M19.1568 26.2016C19.412 26.2016 19.6188 25.9947 19.6188 25.7396C19.6188 25.4844 19.412 25.2776 19.1568 25.2776C18.9017 25.2776 18.6948 25.4844 18.6948 25.7396C18.6948 25.9947 18.9017 26.2016 19.1568 26.2016Z" fill="#1D1B20"/>
<path d="M14.1107 27.6745H17.841" stroke="#1D1B20" stroke-width="0.462011" stroke-miterlimit="10" stroke-linecap="round"/>
</g>
<defs>
<clipPath id="clip0_60055_46362">
<rect width="40" height="40" rx="20" fill="white"/>
</clipPath>
</defs>
</svg>
