<svg width="40" height="40" viewBox="0 0 40 40" fill="none" xmlns="http://www.w3.org/2000/svg">
<g clip-path="url(#clip0_60044_60278)">
<path d="M20 40C31.0455 40 39.9997 31.0457 39.9997 20C39.9997 8.9543 31.0455 0 20 0C8.95447 0 0.000305176 8.9543 0.000305176 20C0.000305176 31.0457 8.95447 40 20 40Z" fill="#FEF7FF"/>
<mask id="mask0_60044_60278" style="mask-type:luminance" maskUnits="userSpaceOnUse" x="0" y="0" width="40" height="40">
<path d="M20 39.9995C31.0455 39.9995 39.9996 31.0454 39.9996 20C39.9996 8.95456 31.0455 0.000457764 20 0.000457764C8.95459 0.000457764 0.000488281 8.95456 0.000488281 20C0.000488281 31.0454 8.95459 39.9995 20 39.9995Z" fill="white"/>
</mask>
<g mask="url(#mask0_60044_60278)">
<path d="M32.7358 26.5984L22.032 33.1461C21.4803 33.4833 21.1042 34.0451 21.0008 34.6827L19.0039 47.0711C18.6768 49.1011 16.0009 49.6288 14.9272 47.874L8.37953 37.1702C8.04226 36.6185 7.48046 36.2425 6.84289 36.139L-5.54548 34.1422C-7.57556 33.815 -8.10318 31.1391 -6.34846 30.0654L4.35542 23.5177C4.90706 23.1805 5.28313 22.6187 5.38663 21.9811L7.38344 9.59273C7.71054 7.56266 10.3865 7.03504 11.4602 8.78976L18.0078 19.4936C18.3451 20.0453 18.9069 20.4213 19.5445 20.5248L31.9329 22.5217C33.9629 22.8488 34.4906 25.5247 32.7358 26.5984Z" fill="#9A7FEE"/>
</g>
<path d="M12.7959 26.2015C13.051 26.2015 13.2579 25.9947 13.2579 25.7395C13.2579 25.4844 13.051 25.2775 12.7959 25.2775C12.5407 25.2775 12.3339 25.4844 12.3339 25.7395C12.3339 25.9947 12.5407 26.2015 12.7959 26.2015Z" fill="#1D1B20"/>
<path d="M19.1568 26.2016C19.412 26.2016 19.6188 25.9947 19.6188 25.7396C19.6188 25.4844 19.412 25.2776 19.1568 25.2776C18.9017 25.2776 18.6948 25.4844 18.6948 25.7396C18.6948 25.9947 18.9017 26.2016 19.1568 26.2016Z" fill="#1D1B20"/>
<path d="M14.1107 27.6745H17.841" stroke="#1D1B20" stroke-width="0.462011" stroke-miterlimit="10" stroke-linecap="round"/>
</g>
<defs>
<clipPath id="clip0_60044_60278">
<rect width="40" height="40" rx="20" fill="white"/>
</clipPath>
</defs>
</svg>
