<svg width="40" height="40" viewBox="0 0 40 40" fill="none" xmlns="http://www.w3.org/2000/svg">
<g clip-path="url(#clip0_60044_60301)">
<path d="M20 40C31.0455 40 39.9997 31.0457 39.9997 20C39.9997 8.9543 31.0455 0 20 0C8.95447 0 0.000305176 8.9543 0.000305176 20C0.000305176 31.0457 8.95447 40 20 40Z" fill="#FEF7FF"/>
<mask id="mask0_60044_60301" style="mask-type:luminance" maskUnits="userSpaceOnUse" x="0" y="0" width="40" height="40">
<path d="M20 39.9995C31.0455 39.9995 39.9996 31.0454 39.9996 20C39.9996 8.95456 31.0455 0.000457764 20 0.000457764C8.95459 0.000457764 0.000488281 8.95456 0.000488281 20C0.000488281 31.0454 8.95459 39.9995 20 39.9995Z" fill="white"/>
</mask>
<g mask="url(#mask0_60044_60301)">
<path d="M45.3025 26.0034L38.0443 29.7142C36.8994 30.2992 36.4254 31.688 36.9734 32.8513L40.4468 40.2259C41.4678 42.3946 39.0081 44.5448 36.9955 43.2419L30.1532 38.8112C29.0739 38.1127 27.6343 38.3964 26.9006 39.4525L22.2509 46.148C20.8834 48.1171 17.7916 47.0618 17.9136 44.6668L18.3294 36.5252C18.395 35.2408 17.4294 34.1366 16.1478 34.0294L8.02468 33.3503C5.63608 33.1507 5.00405 29.9453 7.13854 28.854L14.3967 25.1431C15.5416 24.5582 16.0156 23.1694 15.4677 22.0061L11.9943 14.6314C10.9732 12.4628 13.433 10.3126 15.4455 11.6154L22.2879 16.0461C23.3671 16.7447 24.8068 16.461 25.5404 15.4048L30.1901 8.70938C31.5577 6.74028 34.6495 7.79552 34.5275 10.1906L34.1117 18.3321C34.0461 19.6165 35.0117 20.7207 36.2933 20.8279L44.4164 21.5071C46.805 21.7067 47.437 24.9121 45.3025 26.0034Z" fill="#8BA8FF"/>
</g>
<path d="M20.8225 25.6062C21.0776 25.6062 21.2845 25.3993 21.2845 25.1441C21.2845 24.889 21.0776 24.6821 20.8225 24.6821C20.5673 24.6821 20.3605 24.889 20.3605 25.1441C20.3605 25.3993 20.5673 25.6062 20.8225 25.6062Z" fill="#1D1B20"/>
<path d="M27.1834 25.6061C27.4386 25.6061 27.6455 25.3993 27.6455 25.1441C27.6455 24.8889 27.4386 24.6821 27.1834 24.6821C26.9283 24.6821 26.7214 24.8889 26.7214 25.1441C26.7214 25.3993 26.9283 25.6061 27.1834 25.6061Z" fill="#1D1B20"/>
<path d="M22.239 26.921C22.239 26.921 23.1122 27.1853 24.1434 27.1853C25.1746 27.1853 25.9684 26.921 25.9684 26.921" stroke="#1D1B20" stroke-width="0.462011" stroke-miterlimit="10" stroke-linecap="round"/>
</g>
<defs>
<clipPath id="clip0_60044_60301">
<rect width="40" height="40" rx="20" fill="white"/>
</clipPath>
</defs>
</svg>
