<svg width="40" height="40" viewBox="0 0 40 40" fill="none" xmlns="http://www.w3.org/2000/svg">
<g clip-path="url(#clip0_60044_60297)">
<path d="M20 40C31.0455 40 39.9997 31.0457 39.9997 20C39.9997 8.9543 31.0455 0 20 0C8.95447 0 0.000305176 8.9543 0.000305176 20C0.000305176 31.0457 8.95447 40 20 40Z" fill="#FEF7FF"/>
<mask id="mask0_60044_60297" style="mask-type:luminance" maskUnits="userSpaceOnUse" x="0" y="0" width="40" height="40">
<path d="M20 39.9995C31.0455 39.9995 39.9996 31.0454 39.9996 20C39.9996 8.95456 31.0455 0.000457764 20 0.000457764C8.95459 0.000457764 0.000488281 8.95456 0.000488281 20C0.000488281 31.0454 8.95459 39.9995 20 39.9995Z" fill="white"/>
</mask>
<g mask="url(#mask0_60044_60297)">
<path d="M23.612 45.3884C34.0568 45.3884 42.524 36.9213 42.524 26.4765C42.524 16.0317 34.0568 7.56451 23.612 7.56451C13.1672 7.56451 4.70007 16.0317 4.70007 26.4765C4.70007 36.9213 13.1672 45.3884 23.612 45.3884Z" fill="#F2C02F"/>
</g>
<path d="M13.848 16.6311C13.848 16.9554 13.5846 17.2188 13.2603 17.2188C12.936 17.2188 12.6726 16.9554 12.6726 16.6311" stroke="#1D1B20" stroke-width="0.462011" stroke-miterlimit="10" stroke-linecap="round"/>
<path d="M21.9442 16.6311C21.9442 16.9554 21.6809 17.2188 21.3565 17.2188C21.0322 17.2188 20.7689 16.9554 20.7689 16.6311" stroke="#1D1B20" stroke-width="0.462011" stroke-miterlimit="10" stroke-linecap="round"/>
<path d="M15.063 18.8931C15.063 18.8931 16.1737 19.2294 17.4868 19.2294C18.7998 19.2294 19.8098 18.8931 19.8098 18.8931" stroke="#1D1B20" stroke-width="0.462011" stroke-miterlimit="10" stroke-linecap="round"/>
</g>
<defs>
<clipPath id="clip0_60044_60297">
<rect width="40" height="40" rx="20" fill="white"/>
</clipPath>
</defs>
</svg>
