<svg width="40" height="40" viewBox="0 0 40 40" fill="none" xmlns="http://www.w3.org/2000/svg">
<g clip-path="url(#clip0_60044_60248)">
<path d="M20 40C31.0455 40 39.9997 31.0457 39.9997 20C39.9997 8.9543 31.0455 0 20 0C8.95447 0 0.000305176 8.9543 0.000305176 20C0.000305176 31.0457 8.95447 40 20 40Z" fill="#FEF7FF"/>
<mask id="mask0_60044_60248" style="mask-type:luminance" maskUnits="userSpaceOnUse" x="0" y="0" width="40" height="40">
<path d="M20 39.9995C31.0455 39.9995 39.9996 31.0454 39.9996 20C39.9996 8.95456 31.0455 0.000457764 20 0.000457764C8.95459 0.000457764 0.000488281 8.95456 0.000488281 20C0.000488281 31.0454 8.95459 39.9995 20 39.9995Z" fill="white"/>
</mask>
<g mask="url(#mask0_60044_60248)">
<path d="M10.3726 27.8052V10.721C10.3726 9.334 11.5295 8.22425 12.9146 8.28524C19.7182 8.58185 26.3268 10.0695 32.5926 12.7196C39.3906 15.5952 45.4938 19.7089 50.7321 24.9472C55.9703 30.1855 60.0841 36.2887 62.9596 43.0867C65.6097 49.3525 67.0983 55.9611 67.394 62.7647C67.4541 64.1507 66.3453 65.3066 64.9583 65.3066H47.875C46.5832 65.3066 45.5252 64.2976 45.442 63.0077C44.8959 54.4854 41.3153 46.5499 35.2223 40.4569C29.1293 34.3639 21.1938 30.7843 12.6716 30.2372C11.3817 30.1541 10.3726 29.0961 10.3726 27.8043V27.8052Z" fill="#B49CFF"/>
</g>
<path d="M16.6971 16.6583H20.4264" stroke="#1D1B20" stroke-width="0.462011" stroke-miterlimit="10" stroke-linecap="round"/>
<path d="M21.3264 14.4101C21.3264 14.1486 21.538 13.937 21.7995 13.937C22.061 13.937 22.2726 14.1486 22.2726 14.4101" stroke="#1D1B20" stroke-width="0.462011" stroke-miterlimit="10" stroke-linecap="round"/>
<path d="M14.8185 14.4101C14.8185 14.1486 15.0301 13.937 15.2916 13.937C15.5531 13.937 15.7647 14.1486 15.7647 14.4101" stroke="#1D1B20" stroke-width="0.462011" stroke-miterlimit="10" stroke-linecap="round"/>
</g>
<defs>
<clipPath id="clip0_60044_60248">
<rect width="40" height="40" rx="20" fill="white"/>
</clipPath>
</defs>
</svg>
