<svg width="40" height="40" viewBox="0 0 40 40" fill="none" xmlns="http://www.w3.org/2000/svg">
<g clip-path="url(#clip0_60098_31871)">
<path d="M20 40C31.0455 40 39.9997 31.0457 39.9997 20C39.9997 8.9543 31.0455 0 20 0C8.95447 0 0.000305176 8.9543 0.000305176 20C0.000305176 31.0457 8.95447 40 20 40Z" fill="#FEF7FF"/>
<mask id="mask0_60098_31871" style="mask-type:luminance" maskUnits="userSpaceOnUse" x="0" y="0" width="40" height="40">
<path d="M20 39.9995C31.0455 39.9995 39.9996 31.0454 39.9996 20C39.9996 8.95456 31.0455 0.000457764 20 0.000457764C8.95459 0.000457764 0.000488281 8.95456 0.000488281 20C0.000488281 31.0454 8.95459 39.9995 20 39.9995Z" fill="white"/>
</mask>
<g mask="url(#mask0_60098_31871)">
<path d="M11.1959 9.37927C-1.74129 9.37927 -12.2289 19.8669 -12.2289 32.8032C-12.2289 45.7395 -1.74129 56.2272 11.1959 56.2272C24.1332 56.2272 34.6199 45.7395 34.6199 32.8032C34.6199 19.8669 24.1332 9.37927 11.1959 9.37927ZM11.1959 42.7984C5.67584 42.7984 1.2008 38.3233 1.2008 32.8032C1.2008 27.2831 5.67584 22.8081 11.1959 22.8081C16.7161 22.8081 21.1911 27.2831 21.1911 32.8032C21.1911 38.3233 16.7161 42.7984 11.1959 42.7984Z" fill="#6B8DEB"/>
</g>
<path d="M23.8962 18.777C24.1513 18.777 24.3582 18.5702 24.3582 18.315C24.3582 18.0599 24.1513 17.853 23.8962 17.853C23.641 17.853 23.4341 18.0599 23.4341 18.315C23.4341 18.5702 23.641 18.777 23.8962 18.777Z" fill="#1D1B20"/>
<path d="M18.7937 20.6676C18.7937 20.6676 19.6669 20.9319 20.6981 20.9319C21.7293 20.9319 22.5231 20.6676 22.5231 20.6676" stroke="#1D1B20" stroke-width="0.462011" stroke-miterlimit="10" stroke-linecap="round"/>
<path d="M16.9152 18.5516C16.9152 18.2901 17.1268 18.0785 17.3883 18.0785C17.6498 18.0785 17.8614 18.2901 17.8614 18.5516" stroke="#1D1B20" stroke-width="0.462011" stroke-miterlimit="10" stroke-linecap="round"/>
</g>
<defs>
<clipPath id="clip0_60098_31871">
<rect width="40" height="40" rx="20" fill="white"/>
</clipPath>
</defs>
</svg>
