<svg width="40" height="40" viewBox="0 0 40 40" fill="none" xmlns="http://www.w3.org/2000/svg">
<g clip-path="url(#clip0_60098_31907)">
<path d="M20 40C31.0455 40 39.9997 31.0457 39.9997 20C39.9997 8.9543 31.0455 0 20 0C8.95447 0 0.000305176 8.9543 0.000305176 20C0.000305176 31.0457 8.95447 40 20 40Z" fill="#FEF7FF"/>
<mask id="mask0_60098_31907" style="mask-type:luminance" maskUnits="userSpaceOnUse" x="0" y="0" width="40" height="40">
<path d="M20 39.9995C31.0455 39.9995 39.9996 31.0454 39.9996 20C39.9996 8.95456 31.0455 0.000457764 20 0.000457764C8.95459 0.000457764 0.000488281 8.95456 0.000488281 20C0.000488281 31.0454 8.95459 39.9995 20 39.9995Z" fill="white"/>
</mask>
<g mask="url(#mask0_60098_31907)">
<path d="M30.8499 18.9143L12.5136 7.14685C11.7762 6.67375 10.83 6.67375 10.0926 7.14685L-8.24365 18.9143C-9.61768 19.7967 -9.61768 21.8046 -8.24365 22.6871L10.0926 34.4545C10.83 34.9276 11.7762 34.9276 12.5136 34.4545L30.8499 22.6871C32.2239 21.8046 32.2239 19.7967 30.8499 18.9143Z" fill="#FFDF96"/>
</g>
<path d="M16.856 20.6676C16.856 20.6676 17.7292 20.9319 18.7604 20.9319C19.7916 20.9319 20.5853 20.6676 20.5853 20.6676" stroke="#1D1B20" stroke-width="0.462011" stroke-miterlimit="10" stroke-linecap="round"/>
<path d="M16.1778 18.777C16.4329 18.777 16.6398 18.5702 16.6398 18.315C16.6398 18.0599 16.4329 17.853 16.1778 17.853C15.9226 17.853 15.7158 18.0599 15.7158 18.315C15.7158 18.5702 15.9226 18.777 16.1778 18.777Z" fill="#1D1B20"/>
<path d="M14.7271 17.853H17.1184" stroke="#1D1B20" stroke-width="0.369609" stroke-miterlimit="10" stroke-linecap="round"/>
<path d="M21.7737 18.777C22.0288 18.777 22.2357 18.5702 22.2357 18.315C22.2357 18.0599 22.0288 17.853 21.7737 17.853C21.5185 17.853 21.3116 18.0599 21.3116 18.315C21.3116 18.5702 21.5185 18.777 21.7737 18.777Z" fill="#1D1B20"/>
<path d="M20.3229 17.853H22.7143" stroke="#1D1B20" stroke-width="0.369609" stroke-miterlimit="10" stroke-linecap="round"/>
</g>
<defs>
<clipPath id="clip0_60098_31907">
<rect width="40" height="40" rx="20" fill="white"/>
</clipPath>
</defs>
</svg>
