<svg width="40" height="40" viewBox="0 0 40 40" fill="none" xmlns="http://www.w3.org/2000/svg">
<g clip-path="url(#clip0_60098_32025)">
<path d="M20 40C31.0455 40 39.9997 31.0457 39.9997 20C39.9997 8.9543 31.0455 0 20 0C8.95447 0 0.000305176 8.9543 0.000305176 20C0.000305176 31.0457 8.95447 40 20 40Z" fill="#1D1B20"/>
<mask id="mask0_60098_32025" style="mask-type:luminance" maskUnits="userSpaceOnUse" x="0" y="0" width="40" height="40">
<path d="M20 39.9995C31.0455 39.9995 39.9996 31.0454 39.9996 20C39.9996 8.95456 31.0455 0.000457764 20 0.000457764C8.95459 0.000457764 0.000488281 8.95456 0.000488281 20C0.000488281 31.0454 8.95459 39.9995 20 39.9995Z" fill="white"/>
</mask>
<g mask="url(#mask0_60098_32025)">
<path d="M28.2414 3.43782C19.1971 3.40548 11.7966 10.9039 11.7966 19.9492V34.1412C11.7966 35.2815 12.7206 36.2055 13.8608 36.2055H42.5C43.6402 36.2055 44.5642 35.2815 44.5642 34.1412V19.8217C44.5642 10.793 37.2617 3.47016 28.2414 3.43782Z" fill="#9FF2E2"/>
</g>
<path d="M18.1265 14.7668C18.3817 14.7668 18.5885 14.5599 18.5885 14.3048C18.5885 14.0496 18.3817 13.8428 18.1265 13.8428C17.8714 13.8428 17.6645 14.0496 17.6645 14.3048C17.6645 14.5599 17.8714 14.7668 18.1265 14.7668Z" fill="#1D1B20"/>
<path d="M23.9543 13.8298L23.4794 14.3048L23.983 14.8084" stroke="#1D1B20" stroke-width="0.462011" stroke-linecap="round" stroke-linejoin="round"/>
<path d="M19.8147 15.7518C19.6743 15.7518 19.5597 15.8461 19.5597 15.9616V16.3339H19.5634C19.6013 16.881 20.1501 17.3152 20.8238 17.3152C21.4974 17.3152 22.0472 16.881 22.0841 16.3339H22.0878V15.9616C22.0878 15.8461 21.9742 15.7518 21.8328 15.7518H19.8138H19.8147Z" fill="#1D1B20"/>
</g>
<defs>
<clipPath id="clip0_60098_32025">
<rect width="40" height="40" rx="20" fill="white"/>
</clipPath>
</defs>
</svg>
