<svg width="40" height="40" viewBox="0 0 40 40" fill="none" xmlns="http://www.w3.org/2000/svg">
<g clip-path="url(#clip0_60098_32093)">
<path d="M20 40C31.0455 40 39.9997 31.0457 39.9997 20C39.9997 8.9543 31.0455 0 20 0C8.95447 0 0.000305176 8.9543 0.000305176 20C0.000305176 31.0457 8.95447 40 20 40Z" fill="#1D1B20"/>
<mask id="mask0_60098_32093" style="mask-type:luminance" maskUnits="userSpaceOnUse" x="0" y="0" width="40" height="40">
<path d="M20 39.9995C31.0455 39.9995 39.9996 31.0454 39.9996 20C39.9996 8.95456 31.0455 0.000457764 20 0.000457764C8.95459 0.000457764 0.000488281 8.95456 0.000488281 20C0.000488281 31.0454 8.95459 39.9995 20 39.9995Z" fill="white"/>
</mask>
<g mask="url(#mask0_60098_32093)">
<path d="M29.4796 27.0115V26.9228C33.4621 26.5042 36.5659 23.1352 36.5659 19.0418C36.5659 14.9484 33.4621 11.5794 29.4796 11.1608V11.1165H10.1573C5.78024 11.1165 2.23199 14.6647 2.23199 19.0418C2.23199 23.4189 5.78024 26.9671 10.1573 26.9671C5.78024 26.9671 2.23199 30.5154 2.23199 34.8925C2.23199 39.2696 5.78024 42.8178 10.1573 42.8178H29.4805V42.7735C33.463 42.3549 36.5668 38.9859 36.5668 34.8925C36.5668 30.7991 33.463 27.4301 29.4805 27.0115H29.4796Z" fill="#CEBDFF"/>
</g>
<path d="M22.4306 16.6684C22.6858 16.6684 22.8927 16.4616 22.8927 16.2064C22.8927 15.9513 22.6858 15.7444 22.4306 15.7444C22.1755 15.7444 21.9686 15.9513 21.9686 16.2064C21.9686 16.4616 22.1755 16.6684 22.4306 16.6684Z" fill="#1D1B20"/>
<path d="M28.7916 16.6684C29.0468 16.6684 29.2536 16.4616 29.2536 16.2064C29.2536 15.9513 29.0468 15.7444 28.7916 15.7444C28.5364 15.7444 28.3296 15.9513 28.3296 16.2064C28.3296 16.4616 28.5364 16.6684 28.7916 16.6684Z" fill="#1D1B20"/>
<path d="M26.4474 18.2698C26.7089 18.2698 26.9205 18.4814 26.9205 18.7429C26.9205 19.0044 26.7089 19.216 26.4474 19.216" stroke="#1D1B20" stroke-width="0.462011" stroke-miterlimit="10" stroke-linecap="round"/>
<path d="M26.4474 17.3245C26.7089 17.3245 26.9205 17.5361 26.9205 17.7976C26.9205 18.0591 26.7089 18.2707 26.4474 18.2707" stroke="#1D1B20" stroke-width="0.462011" stroke-miterlimit="10" stroke-linecap="round"/>
</g>
<defs>
<clipPath id="clip0_60098_32093">
<rect width="40" height="40" rx="20" fill="white"/>
</clipPath>
</defs>
</svg>
