<svg width="40" height="40" viewBox="0 0 40 40" fill="none" xmlns="http://www.w3.org/2000/svg">
<g clip-path="url(#clip0_60098_32165)">
<path d="M20 40C31.0455 40 39.9997 31.0457 39.9997 20C39.9997 8.9543 31.0455 0 20 0C8.95447 0 0.000305176 8.9543 0.000305176 20C0.000305176 31.0457 8.95447 40 20 40Z" fill="#1D1B20"/>
<mask id="mask0_60098_32165" style="mask-type:luminance" maskUnits="userSpaceOnUse" x="0" y="0" width="40" height="40">
<path d="M20 39.9995C31.0455 39.9995 39.9996 31.0454 39.9996 20C39.9996 8.95456 31.0455 0.000457764 20 0.000457764C8.95459 0.000457764 0.000488281 8.95456 0.000488281 20C0.000488281 31.0454 8.95459 39.9995 20 39.9995Z" fill="white"/>
</mask>
<g mask="url(#mask0_60098_32165)">
<path d="M20.2791 10.3532L7.10899 19.9215C6.2053 20.5784 5.82738 21.7418 6.17204 22.8044L11.2024 38.2873C11.548 39.35 12.5376 40.0688 13.6548 40.0688H29.9342C31.0513 40.0688 32.0419 39.349 32.3865 38.2873L37.4169 22.8044C37.7625 21.7418 37.3837 20.5775 36.48 19.9215L23.3099 10.3532C22.4062 9.69623 21.1819 9.69623 20.2782 10.3532H20.2791Z" fill="#B3C5FF"/>
</g>
<path d="M20.2462 18.7216C20.2462 18.4601 20.4578 18.2485 20.7193 18.2485C20.9808 18.2485 21.1924 18.4601 21.1924 18.7216" stroke="#1D1B20" stroke-width="0.462011" stroke-miterlimit="10" stroke-linecap="round"/>
<path d="M14.6827 18.7216C14.6827 18.4601 14.8943 18.2485 15.1558 18.2485C15.4173 18.2485 15.6289 18.4601 15.6289 18.7216" stroke="#1D1B20" stroke-width="0.462011" stroke-miterlimit="10" stroke-linecap="round"/>
<path d="M16.9272 20.188C16.7867 20.188 16.6721 20.2823 16.6721 20.3978V20.7702H16.6758C16.7137 21.3172 17.2626 21.7515 17.9362 21.7515C18.6098 21.7515 19.1596 21.3172 19.1965 20.7702H19.2002V20.3978C19.2002 20.2823 19.0866 20.188 18.9452 20.188H16.9262H16.9272Z" fill="#1D1B20"/>
</g>
<defs>
<clipPath id="clip0_60098_32165">
<rect width="40" height="40" rx="20" fill="white"/>
</clipPath>
</defs>
</svg>
