<svg width="40" height="40" viewBox="0 0 40 40" fill="none" xmlns="http://www.w3.org/2000/svg">
<g clip-path="url(#clip0_60098_32223)">
<path d="M20 40C31.0455 40 39.9997 31.0457 39.9997 20C39.9997 8.9543 31.0455 0 20 0C8.95447 0 0.000305176 8.9543 0.000305176 20C0.000305176 31.0457 8.95447 40 20 40Z" fill="#1D1B20"/>
<mask id="mask0_60098_32223" style="mask-type:luminance" maskUnits="userSpaceOnUse" x="0" y="0" width="40" height="40">
<path d="M20 39.9995C31.0455 39.9995 39.9996 31.0454 39.9996 20C39.9996 8.95456 31.0455 0.000457764 20 0.000457764C8.95459 0.000457764 0.000488281 8.95456 0.000488281 20C0.000488281 31.0454 8.95459 39.9995 20 39.9995Z" fill="white"/>
</mask>
<g mask="url(#mask0_60098_32223)">
<path d="M12.9895 8.11153L-4.34517 38.1358C-5.76262 40.59 -3.99127 43.6587 -1.15637 43.6587H33.5129C36.3469 43.6587 38.1183 40.5909 36.7017 38.1358L19.3662 8.11153C17.9487 5.65732 14.406 5.65732 12.9895 8.11153Z" fill="#D4A408"/>
</g>
<path d="M15.0311 20.5373C15.0311 20.8617 14.7677 21.125 14.4434 21.125C14.1191 21.125 13.8557 20.8617 13.8557 20.5373" stroke="#1D1B20" stroke-width="0.462011" stroke-miterlimit="10" stroke-linecap="round"/>
<path d="M20.3821 20.5373C20.3821 20.8617 20.1187 21.125 19.7944 21.125C19.4701 21.125 19.2067 20.8617 19.2067 20.5373" stroke="#1D1B20" stroke-width="0.462011" stroke-miterlimit="10" stroke-linecap="round"/>
<path d="M15.7204 23.3741C16.1242 23.7557 16.8745 23.8703 17.6248 23.6143C18.3742 23.3584 18.8981 22.8076 18.9831 22.2588" stroke="#1D1B20" stroke-width="0.462011" stroke-miterlimit="10" stroke-linecap="round"/>
</g>
<defs>
<clipPath id="clip0_60098_32223">
<rect width="40" height="40" rx="20" fill="white"/>
</clipPath>
</defs>
</svg>
