<svg width="40" height="40" viewBox="0 0 40 40" fill="none" xmlns="http://www.w3.org/2000/svg">
<g clip-path="url(#clip0_60098_32257)">
<rect width="40" height="40" rx="20" fill="#008778"/>
<path d="M20 40C31.0455 40 39.9997 31.0457 39.9997 20C39.9997 8.9543 31.0455 0 20 0C8.95447 0 0.000305176 8.9543 0.000305176 20C0.000305176 31.0457 8.95447 40 20 40Z" fill="#FEF7FF"/>
<mask id="mask0_60098_32257" style="mask-type:luminance" maskUnits="userSpaceOnUse" x="0" y="0" width="40" height="40">
<path d="M20 39.9995C31.0455 39.9995 39.9996 31.0454 39.9996 20C39.9996 8.95456 31.0455 0.000457764 20 0.000457764C8.95459 0.000457764 0.000488281 8.95456 0.000488281 20C0.000488281 31.0454 8.95459 39.9995 20 39.9995Z" fill="white"/>
</mask>
<g mask="url(#mask0_60098_32257)">
<path d="M36.2166 27.4495L26.5615 32.4965C26.2889 32.6388 26.2436 33.0112 26.4756 33.2144L34.6606 40.4052C34.9886 40.6935 34.7391 41.2322 34.3076 41.1675L23.5298 39.5754C23.2258 39.5301 22.9708 39.8055 23.0382 40.1049L25.4333 50.733C25.5294 51.159 25.011 51.4482 24.6996 51.1423L16.9156 43.5191C16.6957 43.3038 16.328 43.3759 16.2069 43.6587L11.8973 53.6649C11.7245 54.0659 11.1359 53.9948 11.0629 53.5642L9.24626 42.8224C9.19451 42.5193 8.8554 42.3613 8.5902 42.5184L-0.777535 48.0801C-1.15269 48.3028 -1.5879 47.8999 -1.39386 47.5081L3.45079 37.7495C3.58755 37.4742 3.40551 37.1471 3.09874 37.1184L-7.74928 36.1122C-8.1845 36.0715 -8.29908 35.4894 -7.91191 35.287L1.7432 30.24C2.01578 30.0977 2.06106 29.7253 1.82913 29.522L-6.35586 22.3313C-6.68389 22.043 -6.4344 21.5043 -6.00288 21.569L4.77491 23.1611C5.07892 23.2064 5.33395 22.931 5.26649 22.6316L2.87143 12.0035C2.77533 11.5775 3.29371 11.2883 3.6051 11.5942L11.3891 19.2174C11.609 19.4327 11.9767 19.3606 12.0978 19.0778L16.4074 9.07159C16.5802 8.67056 17.1688 8.74172 17.2418 9.17231L19.0585 19.9141C19.1102 20.2171 19.4493 20.3752 19.7145 20.2181L29.0822 14.6564C29.4574 14.4337 29.8926 14.8366 29.6986 15.2284L24.8539 24.9869C24.7172 25.2623 24.8992 25.5894 25.206 25.6181L36.054 26.6243C36.4892 26.665 36.6038 27.2471 36.2166 27.4495Z" fill="#008778"/>
</g>
<path d="M16.5104 27.0785C16.5104 27.0785 17.3836 27.3427 18.4148 27.3427C19.4461 27.3427 20.2398 27.0785 20.2398 27.0785" stroke="#1D1B20" stroke-width="0.462011" stroke-miterlimit="10" stroke-linecap="round"/>
<path d="M15.5328 25.8957C15.788 25.8957 15.9948 25.6889 15.9948 25.4337C15.9948 25.1785 15.788 24.9717 15.5328 24.9717C15.2777 24.9717 15.0708 25.1785 15.0708 25.4337C15.0708 25.6889 15.2777 25.8957 15.5328 25.8957Z" fill="#1D1B20"/>
<path d="M14.1542 25.382L16.4005 24.5614" stroke="#1D1B20" stroke-width="0.369609" stroke-miterlimit="10" stroke-linecap="round"/>
<path d="M21.2183 25.8957C21.4735 25.8957 21.6803 25.6889 21.6803 25.4337C21.6803 25.1785 21.4735 24.9717 21.2183 24.9717C20.9631 24.9717 20.7563 25.1785 20.7563 25.4337C20.7563 25.6889 20.9631 25.8957 21.2183 25.8957Z" fill="#1D1B20"/>
<path d="M22.5969 25.382L20.3506 24.5614" stroke="#1D1B20" stroke-width="0.369609" stroke-miterlimit="10" stroke-linecap="round"/>
</g>
<defs>
<clipPath id="clip0_60098_32257">
<rect width="40" height="40" rx="20" fill="white"/>
</clipPath>
</defs>
</svg>
