<svg width="40" height="40" viewBox="0 0 40 40" fill="none" xmlns="http://www.w3.org/2000/svg">
<g clip-path="url(#clip0_60098_32319)">
<path d="M20 40C31.0455 40 39.9997 31.0457 39.9997 20C39.9997 8.9543 31.0455 0 20 0C8.95447 0 0.000305176 8.9543 0.000305176 20C0.000305176 31.0457 8.95447 40 20 40Z" fill="#FEF7FF"/>
<mask id="mask0_60098_32319" style="mask-type:luminance" maskUnits="userSpaceOnUse" x="0" y="0" width="40" height="40">
<path d="M20 39.9995C31.0455 39.9995 39.9996 31.0454 39.9996 20C39.9996 8.95456 31.0455 0.000457764 20 0.000457764C8.95459 0.000457764 0.000488281 8.95456 0.000488281 20C0.000488281 31.0454 8.95459 39.9995 20 39.9995Z" fill="white"/>
</mask>
<g mask="url(#mask0_60098_32319)">
<path d="M48.5754 23.0289L45.0198 27.1011C44.4284 27.7784 44.2399 28.7181 44.5236 29.5719L46.2321 34.7012C46.7569 36.2757 45.6527 37.9223 43.9969 38.0341L38.6034 38.3991C37.7061 38.4601 36.9078 38.9914 36.5058 39.7953L34.0877 44.6307C33.3448 46.1156 31.4006 46.4982 30.1504 45.4069L26.0782 41.8513C25.4009 41.2599 24.4612 41.0714 23.6074 41.3551L18.4782 43.0636C16.9036 43.5884 15.257 42.4842 15.1452 40.8284L14.7802 35.4349C14.7192 34.5376 14.1879 33.7393 13.384 33.3373L8.54862 30.9192C7.06371 30.1763 6.68117 28.2321 7.77244 26.9819L11.3281 22.9097C11.9195 22.2324 12.108 21.2927 11.8243 20.4389L10.1158 15.3097C9.59091 13.7351 10.6951 12.0885 12.351 11.9767L17.7445 11.6117C18.6417 11.5507 19.4401 11.0194 19.842 10.2155L22.2602 5.38011C23.0031 3.89521 24.9472 3.51267 26.1974 4.60394L30.2696 8.15957C30.9469 8.75095 31.8866 8.93945 32.7404 8.65577L37.8697 6.94726C39.4442 6.42241 41.0908 7.52662 41.2026 9.18247L41.5676 14.576C41.6286 15.4732 42.1599 16.2716 42.9638 16.6735L47.7992 19.0917C49.2841 19.8346 49.6667 21.7787 48.5754 23.0289Z" fill="#E8DDFF"/>
</g>
<path d="M24.2815 17.5324L23.8065 18.0064L24.311 18.5109" stroke="#1D1B20" stroke-width="0.462011" stroke-linecap="round" stroke-linejoin="round"/>
<path d="M17.9085 18.4971L18.3834 18.0221L17.8789 17.5185" stroke="#1D1B20" stroke-width="0.462011" stroke-linecap="round" stroke-linejoin="round"/>
<path d="M20.0855 19.4923C19.945 19.4923 19.8304 19.5865 19.8304 19.702V20.0744H19.8341C19.872 20.6214 20.4209 21.0557 21.0945 21.0557C21.7681 21.0557 22.3179 20.6214 22.3549 20.0744H22.3586V19.702C22.3586 19.5865 22.2449 19.4923 22.1035 19.4923H20.0846H20.0855Z" fill="#1D1B20"/>
</g>
<defs>
<clipPath id="clip0_60098_32319">
<rect width="40" height="40" rx="20" fill="white"/>
</clipPath>
</defs>
</svg>
