<svg width="40" height="40" viewBox="0 0 40 40" fill="none" xmlns="http://www.w3.org/2000/svg">
<g clip-path="url(#clip0_60136_9340)">
<path d="M20 40C31.0455 40 39.9997 31.0457 39.9997 20C39.9997 8.9543 31.0455 0 20 0C8.95447 0 0.000305176 8.9543 0.000305176 20C0.000305176 31.0457 8.95447 40 20 40Z" fill="#1D1B20"/>
<mask id="mask0_60136_9340" style="mask-type:luminance" maskUnits="userSpaceOnUse" x="0" y="0" width="40" height="40">
<path d="M20 40C31.0457 40 40 31.0457 40 20C40 8.9543 31.0457 0 20 0C8.95434 0 3.05176e-05 8.9543 3.05176e-05 20C3.05176e-05 31.0457 8.95434 40 20 40Z" fill="white"/>
</mask>
<g mask="url(#mask0_60136_9340)">
<path d="M18.2028 8.63057L29.9067 13.1722C30.2902 13.321 30.5822 13.6407 30.6949 14.0353L34.1628 26.1015C34.2423 26.3777 34.2294 26.6725 34.125 26.9414L29.5833 38.6454C29.4345 39.0288 29.1148 39.3208 28.7202 39.4336L16.6541 42.9015C16.3778 42.981 16.083 42.968 15.8141 42.8636L4.11018 38.3219C3.7267 38.1732 3.4347 37.8534 3.32197 37.4589L-0.145966 25.3927C-0.225433 25.1164 -0.212497 24.8217 -0.10808 24.5528L4.43359 12.8488C4.58237 12.4653 4.90208 12.1734 5.29665 12.0606L17.3628 8.59268C17.6391 8.51321 17.9339 8.52615 18.2028 8.63057Z" fill="#DBE1FF"/>
</g>
<path d="M21.1717 20.4546L21.6466 20.9111L21.143 21.3953" stroke="#1D1B20" stroke-width="0.462022" stroke-linecap="round" stroke-linejoin="round"/>
<path d="M27.5448 21.3814L27.0699 20.9259L27.5744 20.4417" stroke="#1D1B20" stroke-width="0.462022" stroke-linecap="round" stroke-linejoin="round"/>
<path d="M26.156 23.4938C25.803 23.9096 25.0721 24.1148 24.2968 23.966C23.5215 23.8181 22.9348 23.3607 22.7823 22.8479" stroke="#1D1B20" stroke-width="0.462022" stroke-miterlimit="10" stroke-linecap="round"/>
</g>
<defs>
<clipPath id="clip0_60136_9340">
<rect width="40" height="40" rx="20" fill="white"/>
</clipPath>
</defs>
</svg>
