<svg width="40" height="40" viewBox="0 0 40 40" fill="none" xmlns="http://www.w3.org/2000/svg">
<g clip-path="url(#clip0_60136_16041)">
<path d="M20 40C31.0455 40 39.9997 31.0457 39.9997 20C39.9997 8.9543 31.0455 0 20 0C8.95447 0 0.000305176 8.9543 0.000305176 20C0.000305176 31.0457 8.95447 40 20 40Z" fill="#FEF7FF"/>
<path d="M26.7206 3.65736L33.0734 22.6649C33.1159 22.7925 33.1843 22.9098 33.273 23.0105L46.558 38.0161C47.1946 38.735 46.5506 39.8512 45.609 39.659L25.9712 35.657C25.8391 35.6302 25.7032 35.6302 25.572 35.657L5.93423 39.659C4.99355 39.8512 4.34857 38.735 4.98523 38.0161L18.2702 23.0105C18.3589 22.9098 18.4273 22.7925 18.4698 22.6649L24.8226 3.65736C25.1266 2.74625 26.4157 2.74625 26.7197 3.65736H26.7206Z" fill="#FFDF96"/>
<path d="M24.5703 25.5286C24.3088 25.5286 24.0972 25.7402 24.0972 26.0017C24.0972 26.2632 24.3088 26.4748 24.5703 26.4748" stroke="#1D1B20" stroke-width="0.462022" stroke-miterlimit="10" stroke-linecap="round"/>
<path d="M24.5703 24.5833C24.3088 24.5833 24.0972 24.7949 24.0972 25.0564C24.0972 25.3179 24.3088 25.5295 24.5703 25.5295" stroke="#1D1B20" stroke-width="0.462022" stroke-miterlimit="10" stroke-linecap="round"/>
<path d="M28.2184 22.5079L27.7435 22.9634L28.248 23.4476" stroke="#1D1B20" stroke-width="0.462022" stroke-linecap="round" stroke-linejoin="round"/>
<path d="M21.8453 23.4347L22.3203 22.9791L21.8167 22.4949" stroke="#1D1B20" stroke-width="0.462022" stroke-linecap="round" stroke-linejoin="round"/>
</g>
<defs>
<clipPath id="clip0_60136_16041">
<rect width="40" height="40" rx="20" fill="white"/>
</clipPath>
</defs>
</svg>
