<svg width="40" height="40" viewBox="0 0 40 40" fill="none" xmlns="http://www.w3.org/2000/svg">
<g clip-path="url(#clip0_60136_16119)">
<path d="M20 40C31.0455 40 39.9997 31.0457 39.9997 20C39.9997 8.9543 31.0455 0 20 0C8.95447 0 0.000305176 8.9543 0.000305176 20C0.000305176 31.0457 8.95447 40 20 40Z" fill="#1D1B20"/>
<mask id="mask0_60136_16119" style="mask-type:luminance" maskUnits="userSpaceOnUse" x="5" y="1" width="41" height="41">
<path d="M25.7717 41.327C36.8171 41.327 45.7712 32.3729 45.7712 21.3275C45.7712 10.282 36.8171 1.32794 25.7717 1.32794C14.7262 1.32794 5.77213 10.282 5.77213 21.3275C5.77213 32.3729 14.7262 41.327 25.7717 41.327Z" fill="white"/>
</mask>
<g mask="url(#mask0_60136_16119)">
<path d="M28.8071 10.1126L30.7752 11.4968C30.9674 11.6326 31.2123 11.6714 31.4378 11.6021L33.7377 10.8934C34.0444 10.7992 34.378 10.9073 34.5711 11.1642L36.0154 13.0889C36.1567 13.2774 36.3776 13.3901 36.6132 13.3929L39.0194 13.4299C39.3409 13.4345 39.6246 13.6405 39.7281 13.9445L40.507 16.2213C40.5828 16.444 40.7584 16.6196 40.9811 16.6954L43.2579 17.4743C43.5619 17.5787 43.7679 17.8615 43.7725 18.183L43.8095 20.5892C43.8132 20.8248 43.9259 21.0456 44.1135 21.187L46.0382 22.6313C46.2951 22.8244 46.4032 23.157 46.309 23.4647L45.6003 25.7646C45.531 25.9901 45.5698 26.234 45.7056 26.4272L47.0898 28.3953C47.2746 28.6577 47.2746 29.0089 47.0898 29.2713L45.7056 31.2395C45.5698 31.4317 45.531 31.6765 45.6003 31.902L46.309 34.2019C46.4032 34.5087 46.2951 34.8422 46.0382 35.0353L44.1135 36.4796C43.925 36.621 43.8123 36.8418 43.8095 37.0774L43.7725 39.4836C43.7679 39.8051 43.5619 40.0888 43.2579 40.1923L40.9811 40.9713C40.7584 41.047 40.5828 41.2226 40.507 41.4453L39.7281 43.7221C39.6237 44.0261 39.3409 44.2321 39.0194 44.2368L36.6132 44.2737C36.3776 44.2774 36.1567 44.3901 36.0154 44.5777L34.5711 46.5025C34.378 46.7593 34.0454 46.8675 33.7377 46.7732L31.4378 46.0645C31.2123 45.9952 30.9684 46.034 30.7752 46.1698L28.8071 47.554C28.5447 47.7388 28.1935 47.7388 27.9311 47.554L25.9629 46.1698C25.7707 46.034 25.5259 45.9952 25.3004 46.0645L23.0005 46.7732C22.6937 46.8675 22.3602 46.7593 22.1671 46.5025L20.7228 44.5777C20.5814 44.3892 20.3606 44.2765 20.125 44.2737L17.7188 44.2368C17.3972 44.2321 17.1136 44.0261 17.0101 43.7221L16.2311 41.4453C16.1554 41.2226 15.9798 41.047 15.7571 40.9713L13.4803 40.1923C13.1763 40.0879 12.9703 39.8051 12.9656 39.4836L12.9287 37.0774C12.925 36.8418 12.8123 36.621 12.6247 36.4796L10.6999 35.0353C10.4431 34.8422 10.3349 34.5096 10.4292 34.2019L11.1379 31.902C11.2072 31.6765 11.1684 31.4326 11.0326 31.2395L9.6484 29.2713C9.4636 29.0089 9.4636 28.6577 9.6484 28.3953L11.0326 26.4272C11.1684 26.235 11.2072 25.9901 11.1379 25.7646L10.4292 23.4647C10.3349 23.158 10.4431 22.8244 10.6999 22.6313L12.6247 21.187C12.8132 21.0456 12.9259 20.8248 12.9287 20.5892L12.9656 18.183C12.9703 17.8615 13.1763 17.5778 13.4803 17.4743L15.7571 16.6954C15.9798 16.6196 16.1554 16.444 16.2311 16.2213L17.0101 13.9445C17.1145 13.6405 17.3972 13.4345 17.7188 13.4299L20.125 13.3929C20.3606 13.3892 20.5814 13.2765 20.7228 13.0889L22.1671 11.1642C22.3602 10.9073 22.6928 10.7992 23.0005 10.8934L25.3004 11.6021C25.5259 11.6714 25.7698 11.6326 25.9629 11.4968L27.9311 10.1126C28.1935 9.92781 28.5447 9.92781 28.8071 10.1126Z" fill="#CAFCF3"/>
</g>
<path d="M23.3692 26.1666H19.6398" stroke="#1D1B20" stroke-width="0.462011" stroke-miterlimit="10" stroke-linecap="round"/>
<path d="M24.3099 24.276C24.565 24.276 24.7719 24.0692 24.7719 23.814C24.7719 23.5589 24.565 23.352 24.3099 23.352C24.0547 23.352 23.8478 23.5589 23.8478 23.814C23.8478 24.0692 24.0547 24.276 24.3099 24.276Z" fill="#1D1B20"/>
<path d="M25.7606 23.352H23.3692" stroke="#1D1B20" stroke-width="0.369609" stroke-miterlimit="10" stroke-linecap="round"/>
<path d="M18.714 24.276C18.9691 24.276 19.176 24.0692 19.176 23.814C19.176 23.5589 18.9691 23.352 18.714 23.352C18.4588 23.352 18.252 23.5589 18.252 23.814C18.252 24.0692 18.4588 24.276 18.714 24.276Z" fill="#1D1B20"/>
<path d="M20.1647 23.352H17.7733" stroke="#1D1B20" stroke-width="0.369609" stroke-miterlimit="10" stroke-linecap="round"/>
</g>
<defs>
<clipPath id="clip0_60136_16119">
<rect width="40" height="40" rx="20" fill="white"/>
</clipPath>
</defs>
</svg>
