<svg width="40" height="40" viewBox="0 0 40 40" fill="none" xmlns="http://www.w3.org/2000/svg">
<g clip-path="url(#clip0_60055_54271)">
<path d="M20 40C31.0457 40 40 31.0457 40 20C40 8.9543 31.0457 0 20 0C8.9543 0 0 8.9543 0 20C0 31.0457 8.9543 40 20 40Z" fill="#E8DDFF"/>
<mask id="mask0_60055_54271" style="mask-type:luminance" maskUnits="userSpaceOnUse" x="0" y="0" width="40" height="40">
<path d="M20 0.0458984C31.0202 0.0458984 39.9541 8.97982 39.9541 20C39.9541 31.0202 31.0202 39.9541 20 39.9541C8.97982 39.9541 0.0458984 31.0202 0.0458984 20C0.0458984 8.97982 8.97982 0.0458984 20 0.0458984Z" fill="white" stroke="white" stroke-width="0.0924044"/>
</mask>
<g mask="url(#mask0_60055_54271)">
<path d="M29.7311 40.3998C37.1169 33.014 37.1169 21.0393 29.7311 13.6536C22.3454 6.26783 10.3707 6.26783 2.98496 13.6536C-4.40079 21.0393 -4.40079 33.014 2.98497 40.3998C10.3707 47.7855 22.3454 47.7855 29.7311 40.3998Z" stroke="#4B3E76" stroke-miterlimit="10" stroke-linecap="round" stroke-dasharray="1.86 1.86"/>
</g>
<path d="M16.8575 21C17.1336 21 17.3575 20.7761 17.3575 20.5C17.3575 20.2239 17.1336 20 16.8575 20C16.5813 20 16.3575 20.2239 16.3575 20.5C16.3575 20.7761 16.5813 21 16.8575 21Z" fill="#4B3E76"/>
<path d="M23.2185 21.0001C23.4946 21.0001 23.7185 20.7763 23.7185 20.5001C23.7185 20.224 23.4946 20.0001 23.2185 20.0001C22.9424 20.0001 22.7185 20.224 22.7185 20.5001C22.7185 20.7763 22.9424 21.0001 23.2185 21.0001Z" fill="#4B3E76"/>
<path d="M18.2369 22.9477H21.9664" stroke="#4B3E76" stroke-miterlimit="10" stroke-linecap="round"/>
</g>
<defs>
<clipPath id="clip0_60055_54271">
<rect width="40" height="40" rx="20" fill="white"/>
</clipPath>
</defs>
</svg>
